<svg width="34" height="27" viewBox="0 0 34 27" fill="none" xmlns="http://www.w3.org/2000/svg">
<path fill-rule="evenodd" clip-rule="evenodd" d="M2.63017 2.24477C2.63017 2.97107 2.04139 3.55986 1.31508 3.55986C0.588783 3.55986 0 2.97107 0 2.24477C0 1.51847 0.588783 0.929688 1.31508 0.929688C2.04139 0.929688 2.63017 1.51847 2.63017 2.24477ZM65.0964 3.55989C65.8227 3.55989 66.4115 2.9711 66.4115 2.2448C66.4115 1.5185 65.8227 0.929717 65.0964 0.929717C64.3701 0.929717 63.7813 1.5185 63.7813 2.2448C63.7813 2.9711 64.3701 3.55989 65.0964 3.55989ZM65.0964 12.7655C65.8227 12.7655 66.4115 12.1768 66.4115 11.4505C66.4115 10.7242 65.8227 10.1354 65.0964 10.1354C64.3701 10.1354 63.7813 10.7242 63.7813 11.4505C63.7813 12.1768 64.3701 12.7655 65.0964 12.7655ZM65.0964 21.9712C65.8227 21.9712 66.4115 21.3824 66.4115 20.6561C66.4115 19.9298 65.8227 19.341 65.0964 19.341C64.3701 19.341 63.7813 19.9298 63.7813 20.6561C63.7813 21.3824 64.3701 21.9712 65.0964 21.9712ZM65.0964 31.1766C65.8227 31.1766 66.4115 30.5878 66.4115 29.8615C66.4115 29.1352 65.8227 28.5464 65.0964 28.5464C64.3701 28.5464 63.7813 29.1352 63.7813 29.8615C63.7813 30.5878 64.3701 31.1766 65.0964 31.1766ZM65.0964 40.3822C65.8227 40.3822 66.4115 39.7934 66.4115 39.0671C66.4115 38.3408 65.8227 37.7521 65.0964 37.7521C64.3701 37.7521 63.7813 38.3408 63.7813 39.0671C63.7813 39.7934 64.3701 40.3822 65.0964 40.3822ZM65.0964 49.5879C65.8227 49.5879 66.4115 48.9991 66.4115 48.2728C66.4115 47.5465 65.8227 46.9577 65.0964 46.9577C64.3701 46.9577 63.7813 47.5465 63.7813 48.2728C63.7813 48.9991 64.3701 49.5879 65.0964 49.5879ZM65.0964 58.7935C65.8227 58.7935 66.4115 58.2048 66.4115 57.4785C66.4115 56.7522 65.8227 56.1634 65.0964 56.1634C64.3701 56.1634 63.7813 56.7522 63.7813 57.4785C63.7813 58.2048 64.3701 58.7935 65.0964 58.7935ZM2.63017 66.6838C2.63017 67.4101 2.04139 67.9989 1.31508 67.9989C0.588783 67.9989 0 67.4101 0 66.6838C0 65.9575 0.588783 65.3688 1.31508 65.3688C2.04139 65.3688 2.63017 65.9575 2.63017 66.6838ZM10.5207 67.9989C11.247 67.9989 11.8358 67.4101 11.8358 66.6838C11.8358 65.9575 11.247 65.3688 10.5207 65.3688C9.79444 65.3688 9.20566 65.9575 9.20566 66.6838C9.20566 67.4101 9.79444 67.9989 10.5207 67.9989ZM20.3843 66.6838C20.3843 67.4101 19.7955 67.9989 19.0692 67.9989C18.3429 67.9989 17.7542 67.4101 17.7542 66.6838C17.7542 65.9575 18.3429 65.3688 19.0692 65.3688C19.7955 65.3688 20.3843 65.9575 20.3843 66.6838ZM28.2738 67.9989C29.0001 67.9989 29.5889 67.4101 29.5889 66.6838C29.5889 65.9575 29.0001 65.3688 28.2738 65.3688C27.5475 65.3688 26.9587 65.9575 26.9587 66.6838C26.9587 67.4101 27.5475 67.9989 28.2738 67.9989ZM38.7945 66.6838C38.7945 67.4101 38.2058 67.9989 37.4795 67.9989C36.7532 67.9989 36.1644 67.4101 36.1644 66.6838C36.1644 65.9575 36.7532 65.3688 37.4795 65.3688C38.2058 65.3688 38.7945 65.9575 38.7945 66.6838ZM46.6851 67.9989C47.4114 67.9989 48.0002 67.4101 48.0002 66.6838C48.0002 65.9575 47.4114 65.3688 46.6851 65.3688C45.9588 65.3688 45.37 65.9575 45.37 66.6838C45.37 67.4101 45.9588 67.9989 46.6851 67.9989ZM57.2059 66.6838C57.2059 67.4101 56.6171 67.9989 55.8908 67.9989C55.1645 67.9989 54.5757 67.4101 54.5757 66.6838C54.5757 65.9575 55.1645 65.3688 55.8908 65.3688C56.6171 65.3688 57.2059 65.9575 57.2059 66.6838ZM66.4115 66.6838C66.4115 67.4101 65.8227 67.9989 65.0964 67.9989C64.3701 67.9989 63.7813 67.4101 63.7813 66.6838C63.7813 65.9575 64.3701 65.3688 65.0964 65.3688C65.8227 65.3688 66.4115 65.9575 66.4115 66.6838ZM57.2059 57.4785C57.2059 58.2048 56.6171 58.7935 55.8908 58.7935C55.1645 58.7935 54.5757 58.2048 54.5757 57.4785C54.5757 56.7522 55.1645 56.1634 55.8908 56.1634C56.6171 56.1634 57.2059 56.7522 57.2059 57.4785ZM46.6851 58.7935C47.4114 58.7935 48.0002 58.2048 48.0002 57.4785C48.0002 56.7522 47.4114 56.1634 46.6851 56.1634C45.9588 56.1634 45.37 56.7522 45.37 57.4785C45.37 58.2048 45.9588 58.7935 46.6851 58.7935ZM38.7945 57.4785C38.7945 58.2048 38.2058 58.7935 37.4795 58.7935C36.7532 58.7935 36.1644 58.2048 36.1644 57.4785C36.1644 56.7522 36.7532 56.1634 37.4795 56.1634C38.2058 56.1634 38.7945 56.7522 38.7945 57.4785ZM28.2738 58.7935C29.0001 58.7935 29.5889 58.2048 29.5889 57.4785C29.5889 56.7522 29.0001 56.1634 28.2738 56.1634C27.5475 56.1634 26.9587 56.7522 26.9587 57.4785C26.9587 58.2048 27.5475 58.7935 28.2738 58.7935ZM20.3843 57.4785C20.3843 58.2048 19.7955 58.7935 19.0692 58.7935C18.3429 58.7935 17.7542 58.2048 17.7542 57.4785C17.7542 56.7522 18.3429 56.1634 19.0692 56.1634C19.7955 56.1634 20.3843 56.7522 20.3843 57.4785ZM10.5207 58.7935C11.247 58.7935 11.8358 58.2048 11.8358 57.4785C11.8358 56.7522 11.247 56.1634 10.5207 56.1634C9.79444 56.1634 9.20566 56.7522 9.20566 57.4785C9.20566 58.2048 9.79444 58.7935 10.5207 58.7935ZM2.63017 57.4785C2.63017 58.2048 2.04139 58.7935 1.31508 58.7935C0.588783 58.7935 0 58.2048 0 57.4785C0 56.7522 0.588783 56.1634 1.31508 56.1634C2.04139 56.1634 2.63017 56.7522 2.63017 57.4785ZM57.2059 48.2728C57.2059 48.9991 56.6171 49.5879 55.8908 49.5879C55.1645 49.5879 54.5757 48.9991 54.5757 48.2728C54.5757 47.5465 55.1645 46.9577 55.8908 46.9577C56.6171 46.9577 57.2059 47.5465 57.2059 48.2728ZM46.6851 49.5879C47.4114 49.5879 48.0002 48.9991 48.0002 48.2728C48.0002 47.5465 47.4114 46.9577 46.6851 46.9577C45.9588 46.9577 45.37 47.5465 45.37 48.2728C45.37 48.9991 45.9588 49.5879 46.6851 49.5879ZM38.7945 48.2728C38.7945 48.9991 38.2058 49.5879 37.4795 49.5879C36.7532 49.5879 36.1644 48.9991 36.1644 48.2728C36.1644 47.5465 36.7532 46.9577 37.4795 46.9577C38.2058 46.9577 38.7945 47.5465 38.7945 48.2728ZM28.2738 49.5879C29.0001 49.5879 29.5889 48.9991 29.5889 48.2728C29.5889 47.5465 29.0001 46.9577 28.2738 46.9577C27.5475 46.9577 26.9587 47.5465 26.9587 48.2728C26.9587 48.9991 27.5475 49.5879 28.2738 49.5879ZM20.3843 48.2728C20.3843 48.9991 19.7955 49.5879 19.0692 49.5879C18.3429 49.5879 17.7542 48.9991 17.7542 48.2728C17.7542 47.5465 18.3429 46.9577 19.0692 46.9577C19.7955 46.9577 20.3843 47.5465 20.3843 48.2728ZM10.5207 49.5879C11.247 49.5879 11.8358 48.9991 11.8358 48.2728C11.8358 47.5465 11.247 46.9577 10.5207 46.9577C9.79444 46.9577 9.20566 47.5465 9.20566 48.2728C9.20566 48.9991 9.79444 49.5879 10.5207 49.5879ZM2.63017 48.2728C2.63017 48.9991 2.04139 49.5879 1.31508 49.5879C0.588783 49.5879 0 48.9991 0 48.2728C0 47.5465 0.588783 46.9577 1.31508 46.9577C2.04139 46.9577 2.63017 47.5465 2.63017 48.2728ZM57.2059 39.0671C57.2059 39.7934 56.6171 40.3822 55.8908 40.3822C55.1645 40.3822 54.5757 39.7934 54.5757 39.0671C54.5757 38.3408 55.1645 37.7521 55.8908 37.7521C56.6171 37.7521 57.2059 38.3408 57.2059 39.0671ZM46.6851 40.3822C47.4114 40.3822 48.0002 39.7934 48.0002 39.0671C48.0002 38.3408 47.4114 37.7521 46.6851 37.7521C45.9588 37.7521 45.37 38.3408 45.37 39.0671C45.37 39.7934 45.9588 40.3822 46.6851 40.3822ZM38.7945 39.0671C38.7945 39.7934 38.2058 40.3822 37.4795 40.3822C36.7532 40.3822 36.1644 39.7934 36.1644 39.0671C36.1644 38.3408 36.7532 37.7521 37.4795 37.7521C38.2058 37.7521 38.7945 38.3408 38.7945 39.0671ZM28.2738 40.3822C29.0001 40.3822 29.5889 39.7934 29.5889 39.0671C29.5889 38.3408 29.0001 37.7521 28.2738 37.7521C27.5475 37.7521 26.9587 38.3408 26.9587 39.0671C26.9587 39.7934 27.5475 40.3822 28.2738 40.3822ZM20.3843 39.0671C20.3843 39.7934 19.7955 40.3822 19.0692 40.3822C18.3429 40.3822 17.7542 39.7934 17.7542 39.0671C17.7542 38.3408 18.3429 37.7521 19.0692 37.7521C19.7955 37.7521 20.3843 38.3408 20.3843 39.0671ZM10.5207 40.3822C11.247 40.3822 11.8358 39.7934 11.8358 39.0671C11.8358 38.3408 11.247 37.7521 10.5207 37.7521C9.79444 37.7521 9.20566 38.3408 9.20566 39.0671C9.20566 39.7934 9.79444 40.3822 10.5207 40.3822ZM2.63017 39.0671C2.63017 39.7934 2.04139 40.3822 1.31508 40.3822C0.588783 40.3822 0 39.7934 0 39.0671C0 38.3408 0.588783 37.7521 1.31508 37.7521C2.04139 37.7521 2.63017 38.3408 2.63017 39.0671ZM57.2059 29.8615C57.2059 30.5878 56.6171 31.1766 55.8908 31.1766C55.1645 31.1766 54.5757 30.5878 54.5757 29.8615C54.5757 29.1352 55.1645 28.5464 55.8908 28.5464C56.6171 28.5464 57.2059 29.1352 57.2059 29.8615ZM46.6851 31.1766C47.4114 31.1766 48.0002 30.5878 48.0002 29.8615C48.0002 29.1352 47.4114 28.5464 46.6851 28.5464C45.9588 28.5464 45.37 29.1352 45.37 29.8615C45.37 30.5878 45.9588 31.1766 46.6851 31.1766ZM38.7945 29.8615C38.7945 30.5878 38.2058 31.1766 37.4795 31.1766C36.7532 31.1766 36.1644 30.5878 36.1644 29.8615C36.1644 29.1352 36.7532 28.5464 37.4795 28.5464C38.2058 28.5464 38.7945 29.1352 38.7945 29.8615ZM28.2738 31.1766C29.0001 31.1766 29.5889 30.5878 29.5889 29.8615C29.5889 29.1352 29.0001 28.5464 28.2738 28.5464C27.5475 28.5464 26.9587 29.1352 26.9587 29.8615C26.9587 30.5878 27.5475 31.1766 28.2738 31.1766ZM20.3843 29.8615C20.3843 30.5878 19.7955 31.1766 19.0692 31.1766C18.3429 31.1766 17.7542 30.5878 17.7542 29.8615C17.7542 29.1352 18.3429 28.5464 19.0692 28.5464C19.7955 28.5464 20.3843 29.1352 20.3843 29.8615ZM10.5207 31.1766C11.247 31.1766 11.8358 30.5878 11.8358 29.8615C11.8358 29.1352 11.247 28.5464 10.5207 28.5464C9.79444 28.5464 9.20566 29.1352 9.20566 29.8615C9.20566 30.5878 9.79444 31.1766 10.5207 31.1766ZM2.63017 29.8615C2.63017 30.5878 2.04139 31.1766 1.31508 31.1766C0.588783 31.1766 0 30.5878 0 29.8615C0 29.1352 0.588783 28.5464 1.31508 28.5464C2.04139 28.5464 2.63017 29.1352 2.63017 29.8615ZM57.2059 20.6561C57.2059 21.3824 56.6171 21.9712 55.8908 21.9712C55.1645 21.9712 54.5757 21.3824 54.5757 20.6561C54.5757 19.9298 55.1645 19.341 55.8908 19.341C56.6171 19.341 57.2059 19.9298 57.2059 20.6561ZM46.6851 21.9712C47.4114 21.9712 48.0002 21.3824 48.0002 20.6561C48.0002 19.9298 47.4114 19.341 46.6851 19.341C45.9588 19.341 45.37 19.9298 45.37 20.6561C45.37 21.3824 45.9588 21.9712 46.6851 21.9712ZM38.7945 20.6561C38.7945 21.3824 38.2058 21.9712 37.4795 21.9712C36.7532 21.9712 36.1644 21.3824 36.1644 20.6561C36.1644 19.9298 36.7532 19.341 37.4795 19.341C38.2058 19.341 38.7945 19.9298 38.7945 20.6561ZM28.2738 21.9712C29.0001 21.9712 29.5889 21.3824 29.5889 20.6561C29.5889 19.9298 29.0001 19.341 28.2738 19.341C27.5475 19.341 26.9587 19.9298 26.9587 20.6561C26.9587 21.3824 27.5475 21.9712 28.2738 21.9712ZM20.3843 20.6561C20.3843 21.3824 19.7955 21.9712 19.0692 21.9712C18.3429 21.9712 17.7542 21.3824 17.7542 20.6561C17.7542 19.9298 18.3429 19.341 19.0692 19.341C19.7955 19.341 20.3843 19.9298 20.3843 20.6561ZM10.5207 21.9712C11.247 21.9712 11.8358 21.3824 11.8358 20.6561C11.8358 19.9298 11.247 19.341 10.5207 19.341C9.79444 19.341 9.20566 19.9298 9.20566 20.6561C9.20566 21.3824 9.79444 21.9712 10.5207 21.9712ZM2.63017 20.6561C2.63017 21.3824 2.04139 21.9712 1.31508 21.9712C0.588783 21.9712 0 21.3824 0 20.6561C0 19.9298 0.588783 19.341 1.31508 19.341C2.04139 19.341 2.63017 19.9298 2.63017 20.6561ZM57.2059 11.4505C57.2059 12.1768 56.6171 12.7655 55.8908 12.7655C55.1645 12.7655 54.5757 12.1768 54.5757 11.4505C54.5757 10.7242 55.1645 10.1354 55.8908 10.1354C56.6171 10.1354 57.2059 10.7242 57.2059 11.4505ZM46.6851 12.7655C47.4114 12.7655 48.0002 12.1768 48.0002 11.4505C48.0002 10.7242 47.4114 10.1354 46.6851 10.1354C45.9588 10.1354 45.37 10.7242 45.37 11.4505C45.37 12.1768 45.9588 12.7655 46.6851 12.7655ZM38.7945 11.4505C38.7945 12.1768 38.2058 12.7655 37.4795 12.7655C36.7532 12.7655 36.1644 12.1768 36.1644 11.4505C36.1644 10.7242 36.7532 10.1354 37.4795 10.1354C38.2058 10.1354 38.7945 10.7242 38.7945 11.4505ZM28.2738 12.7655C29.0001 12.7655 29.5889 12.1768 29.5889 11.4505C29.5889 10.7242 29.0001 10.1354 28.2738 10.1354C27.5475 10.1354 26.9587 10.7242 26.9587 11.4505C26.9587 12.1768 27.5475 12.7655 28.2738 12.7655ZM20.3843 11.4505C20.3843 12.1768 19.7955 12.7655 19.0692 12.7655C18.3429 12.7655 17.7542 12.1768 17.7542 11.4505C17.7542 10.7242 18.3429 10.1354 19.0692 10.1354C19.7955 10.1354 20.3843 10.7242 20.3843 11.4505ZM10.5207 12.7655C11.247 12.7655 11.8358 12.1768 11.8358 11.4505C11.8358 10.7242 11.247 10.1354 10.5207 10.1354C9.79444 10.1354 9.20566 10.7242 9.20566 11.4505C9.20566 12.1768 9.79444 12.7655 10.5207 12.7655ZM2.63017 11.4505C2.63017 12.1768 2.04139 12.7655 1.31508 12.7655C0.588783 12.7655 0 12.1768 0 11.4505C0 10.7242 0.588783 10.1354 1.31508 10.1354C2.04139 10.1354 2.63017 10.7242 2.63017 11.4505ZM57.2059 2.2448C57.2059 2.9711 56.6171 3.55989 55.8908 3.55989C55.1645 3.55989 54.5757 2.9711 54.5757 2.2448C54.5757 1.5185 55.1645 0.929717 55.8908 0.929717C56.6171 0.929717 57.2059 1.5185 57.2059 2.2448ZM46.6851 3.55989C47.4114 3.55989 48.0002 2.9711 48.0002 2.2448C48.0002 1.5185 47.4114 0.929717 46.6851 0.929717C45.9588 0.929717 45.37 1.5185 45.37 2.2448C45.37 2.9711 45.9588 3.55989 46.6851 3.55989ZM38.7945 2.2448C38.7945 2.9711 38.2058 3.55989 37.4795 3.55989C36.7532 3.55989 36.1644 2.9711 36.1644 2.2448C36.1644 1.5185 36.7532 0.929717 37.4795 0.929717C38.2058 0.929717 38.7945 1.5185 38.7945 2.2448ZM28.2738 3.55989C29.0001 3.55989 29.5889 2.9711 29.5889 2.2448C29.5889 1.5185 29.0001 0.929717 28.2738 0.929717C27.5475 0.929717 26.9587 1.5185 26.9587 2.2448C26.9587 2.9711 27.5475 3.55989 28.2738 3.55989ZM20.3843 2.2448C20.3843 2.9711 19.7955 3.55989 19.0692 3.55989C18.3429 3.55989 17.7542 2.9711 17.7542 2.2448C17.7542 1.5185 18.3429 0.929717 19.0692 0.929717C19.7955 0.929717 20.3843 1.5185 20.3843 2.2448ZM10.5207 3.55989C11.247 3.55989 11.8358 2.9711 11.8358 2.2448C11.8358 1.5185 11.247 0.929717 10.5207 0.929717C9.79444 0.929717 9.20566 1.5185 9.20566 2.2448C9.20566 2.9711 9.79444 3.55989 10.5207 3.55989Z" fill="white"/>
</svg>
