<svg width="30" height="30" viewBox="0 0 30 30" fill="none" xmlns="http://www.w3.org/2000/svg">
<mask id="mask0_2155_3604" style="mask-type:alpha" maskUnits="userSpaceOnUse" x="0" y="0" width="30" height="30">
<rect width="30" height="30" rx="15" fill="#D9D9D9"/>
</mask>
<g mask="url(#mask0_2155_3604)">
<path d="M51.4235 27.6914H0V30.0002H51.4235V27.6914Z" fill="#CB001C"/>
<path d="M51.4235 25.3828H0V27.6916H51.4235V25.3828Z" fill="white"/>
<path d="M51.4235 23.082H0V25.3837H51.4235V23.082Z" fill="#CB001C"/>
<path d="M51.4235 20.7734H0V23.0822H51.4235V20.7734Z" fill="white"/>
<path d="M51.4235 18.4648H0V20.7736H51.4235V18.4648Z" fill="#CB001C"/>
<path d="M51.4235 16.1562H0V18.465H51.4235V16.1562Z" fill="white"/>
<path d="M51.4235 13.8438H0V16.1525H51.4235V13.8438Z" fill="#CB001C"/>
<path d="M51.4235 11.5352H0V13.8369H51.4235V11.5352Z" fill="white"/>
<path d="M51.4235 9.23438H0V11.5432H51.4235V9.23438Z" fill="#CB001C"/>
<path d="M51.4235 6.92578H0V9.23456H51.4235V6.92578Z" fill="white"/>
<path d="M51.4235 4.61719H0V6.92597H51.4235V4.61719Z" fill="#CB001C"/>
<path d="M51.4235 2.30859H0V4.61029H51.4235V2.30859Z" fill="white"/>
<path d="M51.4235 0H0V2.30878H51.4235V0Z" fill="#CB001C"/>
<path d="M23.4844 0H0V16.1544H23.4844V0Z" fill="#2A3560"/>
<path d="M2.12476 1.78516L2.32306 2.39422H2.96753L2.44345 2.76958L2.64175 3.38572L2.12476 3.00329L1.60068 3.38572L1.80606 2.76958L1.28906 2.39422H1.92646L2.12476 1.78516Z" fill="white"/>
<path d="M2.12476 4.47656L2.32306 5.09271H2.96753L2.44345 5.46806L2.64175 6.07713L2.12476 5.70178L1.60068 6.07713L1.80606 5.46806L1.28906 5.09271H1.92646L2.12476 4.47656Z" fill="white"/>
<path d="M2.12476 7.17578L2.32306 7.78485H2.96753L2.44345 8.1602L2.64175 8.77635L2.12476 8.39391L1.60068 8.77635L1.80606 8.1602L1.28906 7.78485H1.92646L2.12476 7.17578Z" fill="white"/>
<path d="M2.12476 9.87109L2.32306 10.4802H2.96753L2.44345 10.8555L2.64175 11.4646L2.12476 11.0892L1.60068 11.4646L1.80606 10.8555L1.28906 10.4802H1.92646L2.12476 9.87109Z" fill="white"/>
<path d="M2.12476 12.5625L2.32306 13.1786H2.96753L2.44345 13.554L2.64175 14.1631L2.12476 13.7877L1.60068 14.1631L1.80606 13.554L1.28906 13.1786H1.92646L2.12476 12.5625Z" fill="white"/>
<path d="M3.99903 3.20312L4.19024 3.81927H4.8418L4.31772 4.19463L4.51602 4.80369L3.99903 4.42834L3.48203 4.80369L3.68033 4.19463L3.15625 3.81927H3.80073L3.99903 3.20312Z" fill="white"/>
<path d="M3.99903 5.89844L4.19024 6.5075H4.8418L4.31772 6.88286L4.51602 7.49192L3.99903 7.12365L3.48203 7.49192L3.68033 6.88286L3.15625 6.5075H3.80073L3.99903 5.89844Z" fill="white"/>
<path d="M3.99903 8.59766L4.19024 9.20672H4.8418L4.31772 9.58208L4.51602 10.1911L3.99903 9.81579L3.48203 10.1911L3.68033 9.58208L3.15625 9.20672H3.80073L3.99903 8.59766Z" fill="white"/>
<path d="M3.99903 11.2969L4.19024 11.9059H4.8418L4.31772 12.2813L4.51602 12.8904L3.99903 12.5079L3.48203 12.8904L3.68033 12.2813L3.15625 11.9059H3.80073L3.99903 11.2969Z" fill="white"/>
<path d="M5.89819 1.78516L6.09649 2.39422H6.74097L6.22397 2.76958L6.42227 3.38572L5.89819 3.00329L5.3812 3.38572L5.5795 2.76958L5.0625 2.39422H5.69989L5.89819 1.78516Z" fill="white"/>
<path d="M5.89819 4.47656L6.09649 5.09271H6.74097L6.22397 5.46806L6.42227 6.07713L5.89819 5.70178L5.3812 6.07713L5.5795 5.46806L5.0625 5.09271H5.69989L5.89819 4.47656Z" fill="white"/>
<path d="M5.89819 7.17578L6.09649 7.78485H6.74097L6.22397 8.1602L6.42227 8.77635L5.89819 8.39391L5.3812 8.77635L5.5795 8.1602L5.0625 7.78485H5.69989L5.89819 7.17578Z" fill="white"/>
<path d="M5.89819 9.87109L6.09649 10.4802H6.74097L6.22397 10.8555L6.42227 11.4646L5.89819 11.0892L5.3812 11.4646L5.5795 10.8555L5.0625 10.4802H5.69989L5.89819 9.87109Z" fill="white"/>
<path d="M5.89819 12.5625L6.09649 13.1786H6.74097L6.22397 13.554L6.42227 14.1631L5.89819 13.7877L5.3812 14.1631L5.5795 13.554L5.0625 13.1786H5.69989L5.89819 12.5625Z" fill="white"/>
<path d="M7.7771 3.20312L7.9754 3.81927H8.62696L8.10288 4.19463L8.30118 4.80369L7.7771 4.42834L7.2601 4.80369L7.46549 4.19463L6.94141 3.81927H7.58588L7.7771 3.20312Z" fill="white"/>
<path d="M7.7771 5.89844L7.9754 6.5075H8.62696L8.10288 6.88286L8.30118 7.49192L7.7771 7.12365L7.2601 7.49192L7.46549 6.88286L6.94141 6.5075H7.58588L7.7771 5.89844Z" fill="white"/>
<path d="M7.7771 8.59766L7.9754 9.20672H8.62696L8.10288 9.58208L8.30118 10.1911L7.7771 9.81579L7.2601 10.1911L7.46549 9.58208L6.94141 9.20672H7.58588L7.7771 8.59766Z" fill="white"/>
<path d="M7.7771 11.2969L7.9754 11.9059H8.62696L8.10288 12.2813L8.30118 12.8904L7.7771 12.5079L7.2601 12.8904L7.46549 12.2813L6.94141 11.9059H7.58588L7.7771 11.2969Z" fill="white"/>
<path d="M9.67944 1.78516L9.88483 2.39422H10.5151L9.99814 2.76958L10.2035 3.38572L9.67944 3.00329L9.16245 3.38572L9.36075 2.76958L8.84375 2.39422H9.48114L9.67944 1.78516Z" fill="white"/>
<path d="M9.67944 4.47656L9.88483 5.09271H10.5151L9.99814 5.46806L10.2035 6.07713L9.67944 5.70178L9.16245 6.07713L9.36075 5.46806L8.84375 5.09271H9.48114L9.67944 4.47656Z" fill="white"/>
<path d="M9.67944 7.17578L9.88483 7.78485H10.5151L9.99814 8.1602L10.2035 8.77635L9.67944 8.39391L9.16245 8.77635L9.36075 8.1602L8.84375 7.78485H9.48114L9.67944 7.17578Z" fill="white"/>
<path d="M9.67944 9.87109L9.88483 10.4802H10.5151L9.99814 10.8555L10.2035 11.4646L9.67944 11.0892L9.16245 11.4646L9.36075 10.8555L8.84375 10.4802H9.48114L9.67944 9.87109Z" fill="white"/>
<path d="M9.67944 12.5625L9.88483 13.1786H10.5151L9.99814 13.554L10.2035 14.1631L9.67944 13.7877L9.16245 14.1631L9.36075 13.554L8.84375 13.1786H9.48114L9.67944 12.5625Z" fill="white"/>
<path d="M11.5654 3.20312L11.7566 3.81927H12.4011L11.8841 4.19463L12.0753 4.80369L11.5654 4.42834L11.0414 4.80369L11.2397 4.19463L10.7227 3.81927H11.3601L11.5654 3.20312Z" fill="white"/>
<path d="M11.5654 5.89844L11.7566 6.5075H12.4011L11.8841 6.88286L12.0753 7.49192L11.5654 7.12365L11.0414 7.49192L11.2397 6.88286L10.7227 6.5075H11.3601L11.5654 5.89844Z" fill="white"/>
<path d="M11.5654 8.59766L11.7566 9.20672H12.4011L11.8841 9.58208L12.0753 10.1911L11.5654 9.81579L11.0414 10.1911L11.2397 9.58208L10.7227 9.20672H11.3601L11.5654 8.59766Z" fill="white"/>
<path d="M11.5654 11.2969L11.7566 11.9059H12.4011L11.8841 12.2813L12.0753 12.8904L11.5654 12.5079L11.0414 12.8904L11.2397 12.2813L10.7227 11.9059H11.3601L11.5654 11.2969Z" fill="white"/>
<path d="M13.4568 1.78516L13.6622 2.39422H14.2996L13.7826 2.76958L13.9809 3.38572L13.4568 3.00329L12.9469 3.38572L13.1381 2.76958L12.6211 2.39422H13.2656L13.4568 1.78516Z" fill="white"/>
<path d="M13.4568 4.47656L13.6622 5.09271H14.2996L13.7826 5.46806L13.9809 6.07713L13.4568 5.70178L12.9469 6.07713L13.1381 5.46806L12.6211 5.09271H13.2656L13.4568 4.47656Z" fill="white"/>
<path d="M13.4568 7.17578L13.6622 7.78485H14.2996L13.7826 8.1602L13.9809 8.77635L13.4568 8.39391L12.9469 8.77635L13.1381 8.1602L12.6211 7.78485H13.2656L13.4568 7.17578Z" fill="white"/>
<path d="M13.4568 9.87109L13.6622 10.4802H14.2996L13.7826 10.8555L13.9809 11.4646L13.4568 11.0892L12.9469 11.4646L13.1381 10.8555L12.6211 10.4802H13.2656L13.4568 9.87109Z" fill="white"/>
<path d="M13.4568 12.5625L13.6622 13.1786H14.2996L13.7826 13.554L13.9809 14.1631L13.4568 13.7877L12.9469 14.1631L13.1381 13.554L12.6211 13.1786H13.2656L13.4568 12.5625Z" fill="white"/>
<path d="M15.3396 3.20312L15.5379 3.81927H16.1824L15.6583 4.19463L15.8566 4.80369L15.3396 4.42834L14.8226 4.80369L15.0209 4.19463L14.5039 3.81927H15.1413L15.3396 3.20312Z" fill="white"/>
<path d="M15.3396 5.89844L15.5379 6.5075H16.1824L15.6583 6.88286L15.8566 7.49192L15.3396 7.12365L14.8226 7.49192L15.0209 6.88286L14.5039 6.5075H15.1413L15.3396 5.89844Z" fill="white"/>
<path d="M15.3396 8.59766L15.5379 9.20672H16.1824L15.6583 9.58208L15.8566 10.1911L15.3396 9.81579L14.8226 10.1911L15.0209 9.58208L14.5039 9.20672H15.1413L15.3396 8.59766Z" fill="white"/>
<path d="M15.3396 11.2969L15.5379 11.9059H16.1824L15.6583 12.2813L15.8566 12.8904L15.3396 12.5079L14.8226 12.8904L15.0209 12.2813L14.5039 11.9059H15.1413L15.3396 11.2969Z" fill="white"/>
<path d="M17.2451 1.78516L17.4434 2.39422H18.0808L17.5638 2.76958L17.7621 3.38572L17.2451 3.00329L16.7281 3.38572L16.9193 2.76958L16.4023 2.39422H17.0468L17.2451 1.78516Z" fill="white"/>
<path d="M17.2451 4.47656L17.4434 5.09271H18.0808L17.5638 5.46806L17.7621 6.07713L17.2451 5.70178L16.7281 6.07713L16.9193 5.46806L16.4023 5.09271H17.0468L17.2451 4.47656Z" fill="white"/>
<path d="M17.2451 7.17578L17.4434 7.78485H18.0808L17.5638 8.1602L17.7621 8.77635L17.2451 8.39391L16.7281 8.77635L16.9193 8.1602L16.4023 7.78485H17.0468L17.2451 7.17578Z" fill="white"/>
<path d="M17.2451 9.87109L17.4434 10.4802H18.0808L17.5638 10.8555L17.7621 11.4646L17.2451 11.0892L16.7281 11.4646L16.9193 10.8555L16.4023 10.4802H17.0468L17.2451 9.87109Z" fill="white"/>
<path d="M17.2451 12.5625L17.4434 13.1786H18.0808L17.5638 13.554L17.7621 14.1631L17.2451 13.7877L16.7281 14.1631L16.9193 13.554L16.4023 13.1786H17.0468L17.2451 12.5625Z" fill="white"/>
<path d="M19.1208 3.20312L19.3121 3.81927H19.9565L19.4466 4.19463L19.6378 4.80369L19.1208 4.42834L18.5968 4.80369L18.7951 4.19463L18.2852 3.81927H18.9226L19.1208 3.20312Z" fill="white"/>
<path d="M19.1208 5.89844L19.3121 6.5075H19.9565L19.4466 6.88286L19.6378 7.49192L19.1208 7.12365L18.5968 7.49192L18.7951 6.88286L18.2852 6.5075H18.9226L19.1208 5.89844Z" fill="white"/>
<path d="M19.1208 8.59766L19.3121 9.20672H19.9565L19.4466 9.58208L19.6378 10.1911L19.1208 9.81579L18.5968 10.1911L18.7951 9.58208L18.2852 9.20672H18.9226L19.1208 8.59766Z" fill="white"/>
<path d="M19.1208 11.2969L19.3121 11.9059H19.9565L19.4466 12.2813L19.6378 12.8904L19.1208 12.5079L18.5968 12.8904L18.7951 12.2813L18.2852 11.9059H18.9226L19.1208 11.2969Z" fill="white"/>
<path d="M21.0225 1.78516L21.2278 2.39422H21.8652L21.3412 2.76958L21.5465 3.38572L21.0225 3.00329L20.5055 3.38572L20.7038 2.76958L20.1797 2.39422H20.8242L21.0225 1.78516Z" fill="white"/>
<path d="M21.0225 4.47656L21.2278 5.09271H21.8652L21.3412 5.46806L21.5465 6.07713L21.0225 5.70178L20.5055 6.07713L20.7038 5.46806L20.1797 5.09271H20.8242L21.0225 4.47656Z" fill="white"/>
<path d="M21.0225 7.17578L21.2278 7.78485H21.8652L21.3412 8.1602L21.5465 8.77635L21.0225 8.39391L20.5055 8.77635L20.7038 8.1602L20.1797 7.78485H20.8242L21.0225 7.17578Z" fill="white"/>
<path d="M21.0225 9.87109L21.2278 10.4802H21.8652L21.3412 10.8555L21.5465 11.4646L21.0225 11.0892L20.5055 11.4646L20.7038 10.8555L20.1797 10.4802H20.8242L21.0225 9.87109Z" fill="white"/>
<path d="M21.0225 12.5625L21.2278 13.1786H21.8652L21.3412 13.554L21.5465 14.1631L21.0225 13.7877L20.5055 14.1631L20.7038 13.554L20.1797 13.1786H20.8242L21.0225 12.5625Z" fill="white"/>
</g>
</svg>
