<svg xmlns="http://www.w3.org/2000/svg" xmlns:xlink="http://www.w3.org/1999/xlink" width="2035.973" height="204.623" viewBox="0 0 2035.973 204.623">
  <defs>
    <filter id="Path_1">
      <feOffset dy="3" input="SourceAlpha"/>
      <feGaussianBlur stdDeviation="3" result="blur"/>
      <feFlood flood-color="#e0d1d1" flood-opacity="0.161" result="color"/>
      <feComposite operator="out" in="SourceGraphic" in2="blur"/>
      <feComposite operator="in" in="color"/>
      <feComposite operator="in" in2="SourceGraphic"/>
    </filter>
  </defs>
  <g data-type="innerShadowGroup">
    <path id="Path_1-2" data-name="Path 1" d="M-412.333-78.255c48.035,2.036,18.191,136.25,34.87,130.6C-329.412,36.059-14.151-17.34,247.817-18.466c206.361-.888,714.7,92.4,995.3,107.539,304.843,16.444,380.518-35.506,380.518-35.506v-165.9H-121.954Z" transform="translate(412.333 112.333)" fill="#fff"/>
    <g transform="matrix(1, 0, 0, 1, 0, 0)" filter="url(#Path_1)">
      <path id="Path_1-3" data-name="Path 1" d="M-412.333-78.255c48.035,2.036,18.191,136.25,34.87,130.6C-329.412,36.059-14.151-17.34,247.817-18.466c206.361-.888,714.7,92.4,995.3,107.539,304.843,16.444,380.518-35.506,380.518-35.506v-165.9H-121.954Z" transform="translate(412.33 112.33)" fill="#fff"/>
    </g>
  </g>
</svg>
