<svg xmlns="http://www.w3.org/2000/svg" xmlns:xlink="http://www.w3.org/1999/xlink" width="1977.69" height="101.033" viewBox="0 0 1977.69 101.033">
  <defs>
    <filter id="Path_1" x="0" y="0" width="1977.69" height="101.033" filterUnits="userSpaceOnUse">
      <feOffset dy="3" input="SourceAlpha"/>
      <feGaussianBlur stdDeviation="3" result="blur"/>
      <feFlood flood-color="#e0d1d1" flood-opacity="0.161" result="color"/>
      <feComposite operator="out" in="SourceGraphic" in2="blur"/>
      <feComposite operator="in" in="color"/>
      <feComposite operator="in" in2="SourceGraphic"/>
    </filter>
  </defs>
  <g data-type="innerShadowGroup">
    <path id="Path_1-2" data-name="Path 1" d="M-412.334-101.251c46.64.662,17.662,44.308,33.857,42.47,46.656-5.3,352.759-22.66,607.117-23.027C429.006-82.1,922.578-51.76,1195.032-46.837,1491.02-41.49,1564.5-58.384,1564.5-58.384v-53.95H-130.39Z" transform="translate(411.472 119.512) rotate(1)" fill="#fff"/>
    <g transform="matrix(1, 0, 0, 1, 0, 0)" filter="url(#Path_1)">
      <path id="Path_1-3" data-name="Path 1" d="M-412.334-101.251c46.64.662,17.662,44.308,33.857,42.47,46.656-5.3,352.759-22.66,607.117-23.027C429.006-82.1,922.578-51.76,1195.032-46.837,1491.02-41.49,1564.5-58.384,1564.5-58.384v-53.95H-130.39Z" transform="translate(411.47 119.51) rotate(1)" fill="#fff"/>
    </g>
  </g>
</svg>
