<svg xmlns="http://www.w3.org/2000/svg" xmlns:xlink="http://www.w3.org/1999/xlink" width="1976.83" height="136.62" viewBox="0 0 1976.83 136.62">
  <defs>
    <filter id="Path_1">
      <feOffset dy="3" input="SourceAlpha"/>
      <feGaussianBlur stdDeviation="3" result="blur"/>
      <feFlood flood-color="#e0d1d1" flood-opacity="0.161" result="color"/>
      <feComposite operator="out" in="SourceGraphic" in2="blur"/>
      <feComposite operator="in" in="color"/>
      <feComposite operator="in" in2="SourceGraphic"/>
    </filter>
  </defs>
  <g data-type="innerShadowGroup">
    <path id="Path_1-2" data-name="Path 1" d="M-412.334-89.581c46.64,1.359,17.662,90.969,33.857,87.2C-331.821-13.257-25.719-48.909,228.64-49.661c200.366-.593,693.937,61.694,966.392,71.8C1491.02,33.118,1564.5-1.567,1564.5-1.567V-112.333H-130.39Z" transform="translate(412.334 112.333)" fill="#ff3a3a"/>
    <g transform="matrix(1, 0, 0, 1, 0, 0)" filter="url(#Path_1)">
      <path id="Path_1-3" data-name="Path 1" d="M-412.334-89.581c46.64,1.359,17.662,90.969,33.857,87.2C-331.821-13.257-25.719-48.909,228.64-49.661c200.366-.593,693.937,61.694,966.392,71.8C1491.02,33.118,1564.5-1.567,1564.5-1.567V-112.333H-130.39Z" transform="translate(412.33 112.33)" fill="#fff"/>
    </g>
  </g>
</svg>
