<svg width="70" height="60" viewBox="0 0 70 60" fill="none" xmlns="http://www.w3.org/2000/svg">
<path d="M7.36193 48.6313C7.36133 48.6839 7.37133 48.7361 7.39133 48.7849C7.41133 48.8336 7.44094 48.8779 7.47845 48.9153C7.55622 48.9891 7.65991 49.0304 7.76779 49.0304C7.87567 49.0304 7.97936 48.9891 8.05713 48.9153C8.09525 48.8784 8.12527 48.8342 8.14531 48.7853C8.16536 48.7365 8.175 48.684 8.17364 48.6313M7.36193 48.6313L7.28054 46.3857M7.36193 48.6313C7.36833 48.3253 7.31095 48.0213 7.19336 47.7381M7.36193 48.6313L7.19336 47.7381M8.17364 48.6313L8.22364 48.632C8.22364 48.6317 8.22364 48.6314 8.22365 48.6311C8.22364 48.6307 8.22363 48.6304 8.22362 48.6301L8.17364 48.6313ZM8.17364 48.6313C8.17915 48.22 8.09968 47.8118 7.94008 47.4318C7.78049 47.0518 7.54411 46.708 7.24542 46.4213C6.95549 46.1272 6.60795 45.8946 6.224 45.7375C5.84005 45.5805 5.42775 45.5025 5.01225 45.5081M5.01225 45.5081L5.01293 45.4581C5.0127 45.4581 5.01248 45.4581 5.01225 45.4581M5.01225 45.5081L5.01158 45.4581C5.0118 45.4581 5.01203 45.4581 5.01225 45.4581M5.01225 45.5081C4.59675 45.5025 4.18445 45.5805 3.80051 45.7375C3.41656 45.8946 3.06902 46.1272 2.77909 46.4213M5.01225 45.4581C5.43423 45.4525 5.85296 45.5318 6.24293 45.6913C6.63289 45.8507 6.98594 46.087 7.28054 46.3857M5.01225 45.4581C4.59028 45.4525 4.17155 45.5318 3.78158 45.6913C3.39152 45.8508 3.03839 46.0871 2.74374 46.3859M7.28054 46.3857C7.28037 46.3855 7.28021 46.3854 7.28004 46.3852L7.24542 46.4213L7.28103 46.3862C7.28086 46.386 7.2807 46.3859 7.28054 46.3857ZM2.74374 46.3859C2.74383 46.3858 2.74392 46.3857 2.74401 46.3857L2.77909 46.4213M2.74374 46.3859C2.44497 46.6801 2.20787 47.0296 2.04607 47.4146C1.88421 47.7996 1.80089 48.2125 1.80089 48.6294C1.80089 49.0464 1.88421 49.4593 2.04607 49.8443C2.20787 50.2292 2.44495 50.5788 2.74369 50.8729M2.74374 46.3859C2.74366 46.386 2.74357 46.3861 2.74348 46.3862L2.77909 46.4213M2.77909 46.4213C2.48488 46.7109 2.25144 47.055 2.09216 47.4339C1.93288 47.8129 1.85089 48.2191 1.85089 48.6294C1.85089 49.0397 1.93288 49.446 2.09216 49.8249C2.25144 50.2039 2.48488 50.548 2.77909 50.8376M2.74369 50.8729C2.74358 50.8728 2.74347 50.8727 2.74336 50.8726L2.77909 50.8376M2.74369 50.8729C3.0376 51.1729 3.3905 51.4103 3.78066 51.5706C4.17087 51.7308 4.59011 51.8104 5.0126 51.8046M2.74369 50.8729C2.7438 50.873 2.7439 50.8731 2.74401 50.8732L2.77909 50.8376M2.77909 50.8376C3.06828 51.1329 3.4156 51.3666 3.79966 51.5243C4.18371 51.682 4.59638 51.7604 5.01225 51.7546M5.0126 51.8046H5.01225V51.7546M5.0126 51.8046H5.09715M5.0126 51.8046C5.01272 51.8046 5.01283 51.8046 5.01295 51.8046L5.01225 51.7546M5.01225 51.7546H5.0977C5.93256 51.7733 6.72586 52.1182 7.30368 52.7138C7.89102 53.3079 8.21757 54.1067 8.21248 54.9371C8.20739 55.7675 7.87107 56.5624 7.27649 57.1493C6.98445 57.4499 6.6324 57.6873 6.24264 57.8465C5.85288 58.0057 5.4339 58.0832 5.01225 58.074L5.09715 51.8046M0.950318 54.9161C0.943525 55.4436 1.04573 55.9669 1.25067 56.4541C1.45558 56.9411 1.75888 57.3817 2.14199 57.7489C2.51469 58.1272 2.96132 58.4265 3.45472 58.6289C3.94815 58.8312 4.47805 58.9323 5.01222 58.9259C5.54589 58.9326 6.07535 58.8317 6.56823 58.6293C7.06104 58.427 7.50693 58.1274 7.87863 57.749C8.26296 57.3825 8.56733 56.9421 8.77295 56.455C8.97861 55.9677 9.08113 55.4441 9.07419 54.9162C9.08058 54.398 8.98189 53.8839 8.78397 53.404C8.58604 52.9242 8.2929 52.4884 7.92186 52.1224L0.950318 54.9161ZM0.950318 54.9161C0.95032 54.9159 0.950322 54.9157 0.950324 54.9156L1.00032 54.9162C0.999906 54.8627 1.01035 54.8097 1.03103 54.7603C1.05171 54.7109 1.0822 54.666 1.12072 54.6285C1.1986 54.5563 1.30136 54.5162 1.40812 54.5162C1.51487 54.5162 1.61763 54.5563 1.69551 54.6285L0.950318 54.9161ZM5.09715 51.8046H5.0977V51.7546L5.09658 51.8046C5.09677 51.8046 5.09696 51.8046 5.09715 51.8046ZM7.19336 47.7381C7.07577 47.455 6.90048 47.1987 6.67839 46.9853L7.19336 47.7381Z" fill="#7B17C1" stroke="#7B17C1" stroke-width="0.1"/>
<path d="M14.6838 57.4189L14.6833 57.4193C14.4556 57.6547 14.1807 57.8408 13.8761 57.9657C13.5716 58.0906 13.2441 58.1515 12.9144 58.1446L12.913 58.1446C12.4968 58.147 12.0865 58.0478 11.7185 57.8558C11.3505 57.6639 11.0363 57.3852 10.8036 57.0445C10.571 56.7039 10.4271 56.3118 10.3847 55.903C10.3424 55.4943 10.4028 55.0816 10.5607 54.7014C10.7187 54.3213 10.9692 53.9855 11.2901 53.7239C11.611 53.4623 11.9924 53.283 12.4005 53.202C12.8085 53.121 13.2304 53.1408 13.6288 53.2596C14.0272 53.3784 14.3896 53.5925 14.684 53.8828C15.1525 54.355 15.4149 54.9897 15.4149 55.6507C15.4149 56.3118 15.1525 56.9467 14.6838 57.4189ZM11.0132 58.476C11.5777 58.8495 12.2415 59.0494 12.9208 59.0504C13.3679 59.0558 13.8113 58.9704 14.2237 58.7996C14.6361 58.6287 15.0086 58.376 15.3181 58.057C15.9569 57.4168 16.3151 56.5538 16.3151 55.6546C16.3151 54.7554 15.9569 53.8924 15.3182 53.2522C15.0102 52.9308 14.6381 52.6759 14.2256 52.5037C13.813 52.3314 13.3689 52.2454 12.9211 52.2511C12.4693 52.2449 12.0209 52.3305 11.604 52.5026C11.187 52.6748 10.8102 52.9298 10.4971 53.252C10.0164 53.7263 9.68881 54.3308 9.55568 54.9892C9.42251 55.6477 9.48994 56.3305 9.74942 56.9511C10.0089 57.5717 10.4487 58.1024 11.0132 58.476Z" fill="#7B17C1" stroke="#7B17C1" stroke-width="0.1"/>
<path d="M19.7635 52.7031C19.7641 52.6398 19.7506 52.5772 19.7241 52.5196C19.6977 52.4621 19.6589 52.4111 19.6105 52.37L17.791 58.9995C17.8447 59 17.898 58.9899 17.9477 58.9698C17.9973 58.9497 18.0425 58.9201 18.0804 58.8826C18.1184 58.845 18.1484 58.8005 18.1687 58.7514C18.1891 58.7023 18.1993 58.6497 18.1988 58.5966H18.2488V58.5964V53.1412L19.3052 53.1522L19.3052 53.1522L19.3065 53.1522C19.4191 53.1505 19.5273 53.1079 19.6104 53.0325C19.6587 52.9923 19.6975 52.942 19.724 52.8851C19.7506 52.8281 19.7641 52.766 19.7635 52.7031ZM19.7635 52.7031C19.7635 52.7033 19.7635 52.7035 19.7635 52.7036L19.7135 52.7031L19.7635 52.7026C19.7635 52.7028 19.7635 52.703 19.7635 52.7031ZM19.5815 48.4096C19.5032 48.4839 19.3987 48.5252 19.2902 48.5247C19.1495 48.5221 19.0098 48.5473 18.8791 48.5986C18.7484 48.65 18.6293 48.7266 18.529 48.824C18.4263 48.9159 18.344 49.0277 18.2872 49.1525C18.2303 49.2773 18.2003 49.4124 18.1988 49.5492L19.5815 48.4096ZM18.2488 52.2393V49.5495L19.5776 52.4077C19.5001 52.3379 19.3989 52.2996 19.2941 52.3003L19.2946 52.2503L19.2942 52.2503L18.2488 52.2393ZM16.7696 52.8684C16.7952 52.9251 16.8328 52.9756 16.8799 53.0166L19.2908 47.6728C18.7828 47.6663 18.2928 47.8587 17.9278 48.2081C17.7433 48.3767 17.5956 48.5808 17.494 48.808C17.3923 49.0354 17.3389 49.281 17.3371 49.5296H17.3371V49.53V52.2387H17.1308V52.2375L17.1199 52.2399C17.0228 52.2616 16.9337 52.3099 16.863 52.3794C16.8211 52.4192 16.7878 52.4671 16.7652 52.5201C16.7425 52.5731 16.731 52.6301 16.7313 52.6877C16.7308 52.75 16.7438 52.8116 16.7696 52.8684Z" fill="#7B17C1" stroke="#7B17C1" stroke-width="0.1"/>
<path d="M21.2805 58.8177C21.537 58.9767 21.835 59.0579 22.1377 59.0512C22.4482 59.0558 22.7531 58.9692 23.0138 58.8023L20.8306 58.1797L20.8273 58.1731M21.2805 58.8177C21.2803 58.8175 21.2802 58.8174 21.28 58.8173L21.3063 58.7748L21.2811 58.818C21.2809 58.8179 21.2807 58.8178 21.2805 58.8177ZM21.2805 58.8177C21.1617 58.7481 21.0595 58.6539 20.981 58.5414C20.9038 58.4309 20.8514 58.3053 20.8273 58.1731M20.8273 58.1731L20.8151 58.149L20.8098 58.1384L20.8111 58.1381L20.7917 58.0575L20.7889 58.0458H20.7903V53.1539H20.6387H20.6383V53.1039C20.5851 53.1046 20.5322 53.0948 20.4828 53.0751C20.4335 53.0553 20.3886 53.0259 20.351 52.9887C20.3133 52.9515 20.2836 52.9072 20.2636 52.8584C20.2435 52.8097 20.2336 52.7574 20.2344 52.7048C20.2345 52.6099 20.2674 52.5179 20.3276 52.4439L20.8273 58.1731ZM20.6113 52.2519C20.5482 52.2518 20.486 52.2664 20.4297 52.2945C20.3738 52.3225 20.3253 52.3632 20.2881 52.4133L20.7903 52.3019V52.2519M20.6113 52.2519L20.6111 52.3019V52.2519H20.6113ZM20.6113 52.2519H20.7903M20.7903 52.2519V49.7438M20.7903 52.2519H20.8403M20.8403 52.2519V49.7427M20.8403 52.2519L21.1044 49.3552L21.0772 49.3821M20.8403 52.2519L20.7903 49.7438M20.8403 49.7427C20.8367 49.6657 20.8577 49.5895 20.9002 49.5248C20.9427 49.4602 21.0046 49.4102 21.0772 49.3821M20.8403 49.7427H20.7903V49.7438M20.8403 49.7427L20.7903 49.745C20.7903 49.7446 20.7903 49.7442 20.7903 49.7438M21.0772 49.3821L21.0591 49.3354C21.0558 49.3367 21.0525 49.3381 21.0492 49.3394L21.0421 49.3465L21.0772 49.3821ZM21.7022 53.1539L21.7175 58.0061C21.7178 58.0126 21.7177 58.019 21.7172 58.0254C21.7327 58.0399 21.7499 58.0526 21.7686 58.063C21.8836 58.1208 22.0113 58.1497 22.1404 58.1472C22.2692 58.1447 22.3953 58.111 22.5077 58.049C22.5448 58.0245 22.5643 58.0063 22.5738 57.9958C22.5747 57.9949 22.5755 57.994 22.5762 57.9932C22.5742 57.9034 22.6008 57.8152 22.6525 57.7411C22.7073 57.6627 22.787 57.6048 22.8787 57.5764C22.9287 57.558 22.9818 57.5493 23.035 57.5507M21.7022 53.1539L23.3571 57.6802C23.3147 57.6384 23.2642 57.6054 23.2087 57.5831C23.1535 57.5611 23.0945 57.55 23.035 57.5507M21.7022 53.1539L23.0346 53.1539L23.0346 53.1539H21.7022ZM23.035 57.5507C23.0347 57.5507 23.0343 57.5507 23.0339 57.5507L23.0346 57.6007L23.0361 57.5508C23.0358 57.5507 23.0354 57.5507 23.035 57.5507ZM23.0343 52.2519H21.7023L21.7175 49.7431C21.7175 49.7431 21.7175 49.7431 21.7175 49.7431L21.7175 49.743L23.0343 52.2519ZM20.1844 52.7041C20.1844 52.7042 20.1844 52.7043 20.1844 52.7044C20.1844 52.7045 20.1844 52.7047 20.1844 52.7048L20.2344 52.7048L20.1844 52.7041Z" fill="#7B17C1" stroke="#7B17C1" stroke-width="0.1"/>
<mask id="path-5-outside-1_253_3738" maskUnits="userSpaceOnUse" x="29.0078" y="44.6133" width="13" height="15" fill="black">
<rect fill="white" x="29.0078" y="44.6133" width="13" height="15"/>
<path d="M41.663 56.7558C41.6647 56.8031 41.6566 56.8504 41.6392 56.8945C41.6219 56.9387 41.5956 56.979 41.562 57.0128C40.4826 58.0983 39.0547 58.7793 37.5229 58.939C37.2394 58.9582 36.9675 58.9697 36.7151 58.9697C35.4522 58.9697 34.2149 58.6172 33.1459 57.9529C32.1351 57.3277 31.3149 56.4432 30.7729 55.3937C30.2681 54.4379 30.0056 53.3753 30.0078 52.2973C30.0078 52.2011 30.013 52.1051 30.0234 52.0095C30.0711 50.8741 30.4111 49.7695 31.0111 48.8001C31.6112 47.8306 32.4515 47.0283 33.4527 46.469C34.4114 45.936 35.4873 45.6423 36.5869 45.6133H36.8044C38.0813 45.6078 39.3327 45.9662 40.4086 46.6455C40.4652 46.6867 40.5112 46.7404 40.5429 46.8024C40.5746 46.8644 40.5911 46.9329 40.5911 47.0023C40.5915 47.0552 40.581 47.1077 40.5603 47.1565C40.5396 47.2053 40.5092 47.2494 40.4707 47.2862C40.4022 47.3495 40.3148 47.389 40.2215 47.3987C40.1283 47.4084 40.0344 47.3878 39.9542 47.34C39.2942 46.9209 38.5568 46.635 37.7846 46.4985C37.0123 46.362 36.2204 46.3776 35.4543 46.5446C34.6882 46.7116 33.963 47.0265 33.3206 47.4713C32.6781 47.9161 32.131 48.482 31.7107 49.1365C31.2904 49.7909 31.0052 50.521 30.8716 51.2847C30.7379 52.0484 30.7583 52.8307 30.9318 53.5866C31.1052 54.3425 31.4282 55.057 31.8822 55.6892C32.3362 56.3213 32.9121 56.8585 33.577 57.2699C34.7148 58.0024 36.0777 58.3149 37.4258 58.1524C38.775 58.0123 40.0328 57.4127 40.9834 56.4565C41.0582 56.388 41.1568 56.3506 41.2587 56.3521C41.3607 56.3535 41.4582 56.3936 41.531 56.4642C41.5729 56.5005 41.6064 56.5454 41.6292 56.5957C41.652 56.6461 41.6635 56.7006 41.663 56.7558V56.7558Z"/>
</mask>
<path d="M41.663 56.7558C41.6647 56.8031 41.6566 56.8504 41.6392 56.8945C41.6219 56.9387 41.5956 56.979 41.562 57.0128C40.4826 58.0983 39.0547 58.7793 37.5229 58.939C37.2394 58.9582 36.9675 58.9697 36.7151 58.9697C35.4522 58.9697 34.2149 58.6172 33.1459 57.9529C32.1351 57.3277 31.3149 56.4432 30.7729 55.3937C30.2681 54.4379 30.0056 53.3753 30.0078 52.2973C30.0078 52.2011 30.013 52.1051 30.0234 52.0095C30.0711 50.8741 30.4111 49.7695 31.0111 48.8001C31.6112 47.8306 32.4515 47.0283 33.4527 46.469C34.4114 45.936 35.4873 45.6423 36.5869 45.6133H36.8044C38.0813 45.6078 39.3327 45.9662 40.4086 46.6455C40.4652 46.6867 40.5112 46.7404 40.5429 46.8024C40.5746 46.8644 40.5911 46.9329 40.5911 47.0023C40.5915 47.0552 40.581 47.1077 40.5603 47.1565C40.5396 47.2053 40.5092 47.2494 40.4707 47.2862C40.4022 47.3495 40.3148 47.389 40.2215 47.3987C40.1283 47.4084 40.0344 47.3878 39.9542 47.34C39.2942 46.9209 38.5568 46.635 37.7846 46.4985C37.0123 46.362 36.2204 46.3776 35.4543 46.5446C34.6882 46.7116 33.963 47.0265 33.3206 47.4713C32.6781 47.9161 32.131 48.482 31.7107 49.1365C31.2904 49.7909 31.0052 50.521 30.8716 51.2847C30.7379 52.0484 30.7583 52.8307 30.9318 53.5866C31.1052 54.3425 31.4282 55.057 31.8822 55.6892C32.3362 56.3213 32.9121 56.8585 33.577 57.2699C34.7148 58.0024 36.0777 58.3149 37.4258 58.1524C38.775 58.0123 40.0328 57.4127 40.9834 56.4565C41.0582 56.388 41.1568 56.3506 41.2587 56.3521C41.3607 56.3535 41.4582 56.3936 41.531 56.4642C41.5729 56.5005 41.6064 56.5454 41.6292 56.5957C41.652 56.6461 41.6635 56.7006 41.663 56.7558V56.7558Z" fill="#7B17C1"/>
<path d="M41.562 57.0128L41.6329 57.0834L41.633 57.0833L41.562 57.0128ZM37.5229 58.939L37.5297 59.0388L37.5333 59.0384L37.5229 58.939ZM36.7151 58.9697V58.8697H36.7151L36.7151 58.9697ZM33.1459 57.9529L33.1987 57.8679L33.1985 57.8678L33.1459 57.9529ZM30.7729 55.3937L30.8618 55.3478L30.8614 55.347L30.7729 55.3937ZM30.0078 52.2973L30.1078 52.2975L30.1078 52.2972L30.0078 52.2973ZM30.0234 52.0095L30.123 52.0203L30.1233 52.0137L30.0234 52.0095ZM33.4527 46.469L33.4041 46.3816L33.404 46.3817L33.4527 46.469ZM36.5869 45.6133V45.5133L36.5843 45.5134L36.5869 45.6133ZM36.8044 45.6133V45.7133L36.8049 45.7133L36.8044 45.6133ZM40.4086 46.6455L40.4675 46.5644L40.4619 46.5609L40.4086 46.6455ZM40.5911 47.0023L40.4911 47.0023L40.4911 47.0031L40.5911 47.0023ZM40.4707 47.2862L40.5386 47.3597L40.5399 47.3585L40.4707 47.2862ZM39.9542 47.34L39.9005 47.4244L39.903 47.4259L39.9542 47.34ZM33.577 57.2699L33.6312 57.1858L33.6296 57.1849L33.577 57.2699ZM37.4258 58.1524L37.4155 58.0529L37.4139 58.0531L37.4258 58.1524ZM40.9834 56.4565L40.9158 56.3826L40.9124 56.386L40.9834 56.4565ZM41.531 56.4642L41.4613 56.5361L41.4654 56.5397L41.531 56.4642ZM41.5631 56.7593C41.5643 56.7929 41.5585 56.8265 41.5462 56.858L41.7323 56.9311C41.7547 56.8742 41.7651 56.8133 41.763 56.7522L41.5631 56.7593ZM41.5462 56.858C41.5338 56.8894 41.5151 56.9182 41.491 56.9424L41.633 57.0833C41.6762 57.0398 41.71 56.988 41.7323 56.9311L41.5462 56.858ZM41.4911 56.9423C40.428 58.0114 39.0216 58.6822 37.5125 58.8395L37.5333 59.0384C39.0878 58.8764 40.5372 58.1853 41.6329 57.0834L41.4911 56.9423ZM37.5162 58.8392C37.2341 58.8583 36.9646 58.8697 36.7151 58.8697V59.0697C36.9704 59.0697 37.2447 59.058 37.5297 59.0387L37.5162 58.8392ZM36.7151 58.8697C35.4708 58.8697 34.2518 58.5224 33.1987 57.8679L33.0931 58.0378C34.178 58.712 35.4336 59.0697 36.7151 59.0697L36.7151 58.8697ZM33.1985 57.8678C32.203 57.2521 31.3954 56.3811 30.8618 55.3478L30.6841 55.4395C31.2344 56.5053 32.0672 57.4033 33.0933 58.0379L33.1985 57.8678ZM30.8614 55.347C30.3642 54.4056 30.1056 53.3592 30.1078 52.2975L29.9078 52.2971C29.9056 53.3915 30.1721 54.4701 30.6845 55.4404L30.8614 55.347ZM30.1078 52.2972C30.1078 52.2047 30.1128 52.1123 30.1228 52.0203L29.9239 51.9987C29.9132 52.0979 29.9078 52.1975 29.9078 52.2973L30.1078 52.2972ZM30.1233 52.0137C30.1703 50.8955 30.5051 49.8076 31.0962 48.8527L30.9261 48.7475C30.3171 49.7315 29.9719 50.8527 29.9235 52.0053L30.1233 52.0137ZM31.0962 48.8527C31.6872 47.8978 32.515 47.1074 33.5015 46.5563L33.404 46.3817C32.388 46.9493 31.5352 47.7635 30.9261 48.7475L31.0962 48.8527ZM33.5013 46.5564C34.4459 46.0313 35.506 45.7418 36.5896 45.7133L36.5843 45.5134C35.4686 45.5427 34.3769 45.8407 33.4041 46.3816L33.5013 46.5564ZM36.5869 45.7133H36.8044V45.5133H36.5869V45.7133ZM36.8049 45.7133C38.0627 45.7079 39.2954 46.0609 40.3552 46.73L40.4619 46.5609C39.3699 45.8714 38.0998 45.5077 36.804 45.5133L36.8049 45.7133ZM40.3497 46.7263C40.3937 46.7583 40.4293 46.8 40.4538 46.8479L40.6319 46.7569C40.593 46.6808 40.5366 46.615 40.4674 46.5646L40.3497 46.7263ZM40.4538 46.8479C40.4784 46.8959 40.4911 46.9487 40.4911 47.0023L40.6911 47.0023C40.6911 46.917 40.6708 46.8329 40.6319 46.7569L40.4538 46.8479ZM40.4911 47.0031C40.4914 47.0423 40.4836 47.0812 40.4683 47.1174L40.6524 47.1955C40.6784 47.1341 40.6916 47.0682 40.6911 47.0015L40.4911 47.0031ZM40.4683 47.1174C40.4529 47.1537 40.4302 47.1865 40.4015 47.214L40.5399 47.3585C40.5881 47.3123 40.6264 47.2569 40.6524 47.1955L40.4683 47.1174ZM40.4028 47.2128C40.3503 47.2613 40.2831 47.2917 40.2112 47.2992L40.2319 47.4981C40.3465 47.4862 40.4542 47.4377 40.5386 47.3597L40.4028 47.2128ZM40.2112 47.2992C40.1393 47.3067 40.067 47.2908 40.0053 47.254L39.903 47.4259C40.0019 47.4847 40.1173 47.5101 40.2319 47.4981L40.2112 47.2992ZM40.0078 47.2555C39.3367 46.8295 38.5871 46.5387 37.802 46.4L37.7672 46.5969C38.5266 46.7312 39.2516 47.0124 39.9006 47.4244L40.0078 47.2555ZM37.802 46.4C37.0169 46.2612 36.2118 46.2772 35.433 46.4469L35.4756 46.6423C36.2289 46.4781 37.0077 46.4627 37.7672 46.5969L37.802 46.4ZM35.433 46.4469C34.6541 46.6166 33.9169 46.9368 33.2636 47.3891L33.3775 47.5535C34.0092 47.1162 34.7222 46.8065 35.4756 46.6423L35.433 46.4469ZM33.2636 47.3891C32.6104 47.8414 32.054 48.4168 31.6266 49.0824L31.7949 49.1905C32.208 48.5472 32.7458 47.9909 33.3775 47.5535L33.2636 47.3891ZM31.6266 49.0824C31.1991 49.748 30.909 50.4906 30.773 51.2675L30.9701 51.302C31.1014 50.5514 31.3817 49.8338 31.7949 49.1905L31.6266 49.0824ZM30.773 51.2675C30.6371 52.0443 30.6579 52.8401 30.8343 53.609L31.0293 53.5643C30.8588 52.8214 30.8387 52.0525 30.9701 51.302L30.773 51.2675ZM30.8343 53.609C31.0108 54.3779 31.3393 55.1046 31.801 55.7475L31.9634 55.6308C31.5172 55.0095 31.1997 54.3071 31.0293 53.5643L30.8343 53.609ZM31.801 55.7475C32.2627 56.3904 32.8484 56.9366 33.5244 57.3549L33.6296 57.1849C32.9759 56.7804 32.4097 56.2522 31.9634 55.6308L31.801 55.7475ZM33.5229 57.354C34.6804 58.0992 36.0667 58.417 37.4378 58.2517L37.4139 58.0531C36.0888 58.2129 34.7493 57.9057 33.6311 57.1858L33.5229 57.354ZM37.4362 58.2519C38.8081 58.1094 40.0873 57.4997 41.0543 56.527L40.9124 56.386C39.9782 57.3257 38.7419 57.9152 37.4155 58.0529L37.4362 58.2519ZM41.0509 56.5303C41.1068 56.4791 41.1807 56.451 41.2573 56.4521L41.2601 56.2521C41.1328 56.2503 41.0096 56.297 40.9158 56.3827L41.0509 56.5303ZM41.2573 56.4521C41.334 56.4531 41.407 56.4833 41.4614 56.536L41.6005 56.3923C41.5093 56.304 41.3874 56.2539 41.2601 56.2521L41.2573 56.4521ZM41.4654 56.5397C41.4965 56.5667 41.5213 56.5999 41.5381 56.637L41.7203 56.5545C41.6915 56.491 41.6493 56.4344 41.5965 56.3886L41.4654 56.5397ZM41.5381 56.637C41.5549 56.6741 41.5634 56.7143 41.563 56.7549L41.763 56.7566C41.7636 56.687 41.749 56.618 41.7203 56.5545L41.5381 56.637Z" fill="#7B17C1" mask="url(#path-5-outside-1_253_3738)"/>
<path d="M46.6014 53.6681L46.6014 53.6681C46.4338 53.5 46.233 53.3676 46.0116 53.279C45.7901 53.1905 45.5525 53.1477 45.3136 53.1533L45.3131 53.1533C45.074 53.1563 44.8382 53.2082 44.6205 53.3058C44.4028 53.4034 44.208 53.5445 44.0484 53.7201L44.0476 53.7211L44.0475 53.7211C43.6844 54.1011 43.4669 54.5942 43.4322 55.1155L43.4361 58.5974C43.4361 58.5975 43.4361 58.5975 43.4361 58.5976L43.4361 58.5977L43.3861 58.5978C43.3865 58.6507 43.376 58.7031 43.3553 58.7519C43.3347 58.8007 43.3042 58.8449 43.2657 58.8817L46.6014 53.6681ZM46.6014 53.6681L46.6023 53.669M46.6014 53.6681L46.6023 53.669M46.6023 53.669C46.976 54.0246 47.2099 54.4994 47.2626 55.009V58.5972L46.6023 53.669ZM42.5205 47.9741V58.5977L48.1737 54.9935C48.1141 54.2488 47.7851 53.5503 47.2469 53.0257C46.9959 52.7693 46.6932 52.5679 46.3584 52.4346C46.0236 52.3012 45.6641 52.2388 45.3033 52.2514C44.8281 52.2599 44.3642 52.3965 43.9617 52.6464L43.9617 52.6465C43.7709 52.7653 43.5945 52.9052 43.4361 53.0634V47.9734C43.4361 47.9734 43.4361 47.9734 43.4361 47.9733C43.4361 47.9138 43.4241 47.8548 43.4009 47.7999C43.3776 47.7451 43.3436 47.6954 43.3008 47.6538C43.2586 47.6117 43.2081 47.5785 43.1526 47.5562C43.0969 47.5339 43.0373 47.5231 42.9773 47.5243L42.9773 47.5242L42.9744 47.5245L42.8773 47.5321L42.8772 47.5317L42.871 47.533C42.7696 47.5543 42.6789 47.6101 42.6148 47.6908C42.5508 47.7714 42.5174 47.8716 42.5205 47.9741ZM48.1743 55.2138C48.1861 55.176 48.1913 55.1364 48.1898 55.0967L48.1743 58.5973V55.2138Z" fill="#7B17C1" stroke="#7B17C1" stroke-width="0.1"/>
<path d="M54.5903 58.1L54.5903 58.1C54.7081 58.0993 54.8221 58.1417 54.9103 58.2192M54.5903 58.1L54.878 58.2575M54.5903 58.1L54.5884 58.1001C54.4665 58.1055 54.3471 58.0657 54.2535 57.9887L54.2544 57.9875L54.2433 57.9822C54.2307 57.9761 54.22 57.9671 54.212 57.9559C54.2045 57.9453 54.1997 57.9332 54.1979 57.9206M54.5903 58.1L54.1479 57.9237M54.9103 58.2192C54.9106 58.2195 54.9108 58.2197 54.9111 58.22L54.878 58.2575M54.9103 58.2192C54.9099 58.219 54.9096 58.2187 54.9093 58.2185L54.878 58.2575M54.9103 58.2192C54.9578 58.2576 54.996 58.3061 55.022 58.3612C55.048 58.4163 55.061 58.4765 55.0601 58.5374C55.0615 58.5998 55.0488 58.6618 55.023 58.7187C54.9971 58.7758 54.9588 58.8264 54.9109 58.8669M54.878 58.2575C54.9201 58.2912 54.9539 58.334 54.9767 58.3825C54.9996 58.431 55.011 58.484 55.0101 58.5376C55.0114 58.5928 55.0003 58.6477 54.9774 58.6981C54.9546 58.7486 54.9206 58.7933 54.878 58.8292M54.9109 58.8669C54.9111 58.8667 54.9113 58.8665 54.9115 58.8663L54.878 58.8292M54.9109 58.8669C54.9107 58.8671 54.9105 58.8673 54.9102 58.8674L54.878 58.8292M54.9109 58.8669C54.8276 58.9417 54.7198 58.9841 54.6075 58.9866C54.2892 58.9959 53.9768 58.9009 53.7188 58.7164L53.7179 58.7157L53.7179 58.7157C53.5834 58.6149 53.4742 58.4852 53.3983 58.3367M54.878 58.8292C54.8035 58.8963 54.707 58.9344 54.6062 58.9366C54.2988 58.9456 53.997 58.8539 53.7479 58.6757C53.6174 58.578 53.512 58.4518 53.4394 58.3073C53.4259 58.317 53.4122 58.3268 53.3983 58.3367M53.3983 58.3367C53.3262 58.3879 53.2493 58.4413 53.1699 58.4947L53.1684 58.4957L53.1684 58.4957C52.8439 58.6969 52.4889 58.8453 52.1168 58.9353L52.1152 58.9357L52.1152 58.9357C51.9665 58.9666 51.7907 58.9975 51.5842 59.0283L51.581 59.0288L51.5809 59.0287C51.4408 59.0402 51.3149 59.048 51.1964 59.048M53.3983 58.3367C53.3906 58.3216 53.3832 58.3064 53.3763 58.291C53.3025 58.3435 53.2236 58.3983 53.142 58.4532C52.8221 58.6516 52.472 58.798 52.105 58.8867C51.9575 58.9174 51.7827 58.9481 51.5768 58.9788M51.1962 58.998C51.3127 58.998 51.437 58.9903 51.5768 58.9788M51.1962 58.998C50.7742 58.9994 50.3555 58.924 49.9612 58.7755C49.6538 58.6777 49.3771 58.5036 49.1574 58.2698C48.9377 58.0359 48.7826 57.7503 48.7067 57.4402L51.5768 58.9788M51.1962 58.998L51.1964 59.048M51.1962 58.998L51.1964 59.048M51.5768 58.9788L51.1964 59.048M49.0718 53.6877L49.0398 53.7261C49.1349 53.8052 49.2574 53.8445 49.3811 53.8357C49.5048 53.8269 49.6202 53.7709 49.7029 53.6792C49.9997 53.3594 50.3994 53.1507 50.8343 53.0888L50.8343 53.0889L50.8379 53.0881C51.3481 52.9768 51.8797 53.0094 52.372 53.1824L52.372 53.1824L52.3732 53.1828C52.6357 53.2676 52.8718 53.4175 53.0588 53.6182L53.0588 53.6182L53.0602 53.6196C53.1995 53.7576 53.2803 53.9428 53.2862 54.1374V54.6253C53.2675 54.6175 53.2503 54.6101 53.2341 54.6021L53.2341 54.602L53.2303 54.6004C52.8898 54.4659 52.5272 54.3945 52.1606 54.3898C51.6015 54.3698 51.0447 54.4706 50.529 54.685L54.1479 54.033M49.0718 53.6877L49.0399 53.7262C48.9923 53.6868 48.9543 53.6371 48.9289 53.5809C48.9037 53.525 48.8916 53.4641 48.8937 53.4028M49.0718 53.6877C49.03 53.6531 48.9967 53.6096 48.9745 53.5604C48.9523 53.5112 48.9417 53.4576 48.9436 53.4038M49.0718 53.6877C49.1569 53.7585 49.2666 53.7937 49.3776 53.7858C49.4886 53.7779 49.592 53.7276 49.666 53.6455L48.9436 53.4038M48.8937 53.4028C48.8943 53.302 48.9279 53.2042 48.9894 53.1239L48.9903 53.1228L48.9903 53.1228C49.2537 52.8 49.5962 52.5492 49.9853 52.3943C50.3982 52.2276 50.8387 52.1379 51.2847 52.1298L51.2852 52.1298C51.4083 52.1288 51.5315 52.134 51.6541 52.1452C52.0054 52.1617 52.3519 52.2325 52.6809 52.3552C53.0588 52.4812 53.4017 52.6927 53.6821 52.9731C53.9389 53.2257 54.113 53.5489 54.1814 53.9007L54.1833 53.9102H54.1824V53.9214C54.1938 53.9578 54.199 53.9957 54.1979 54.0338M48.8937 53.4028C48.8937 53.4025 48.8937 53.4023 48.8937 53.402L48.9436 53.4038M48.8937 53.4028C48.8937 53.403 48.8936 53.4033 48.8936 53.4036L48.9436 53.4038M54.1979 54.0338C54.1979 54.0341 54.1979 54.0344 54.1979 54.0347L54.1479 54.033M54.1979 54.0338V54.033H54.1479M54.1979 54.0338V57.9206M54.1479 54.033V57.9237M54.1979 57.9206C54.1978 57.9198 54.1977 57.919 54.1976 57.9182L54.1479 57.9237M54.1979 57.9206V57.9237H54.1479M48.6582 57.4521C48.7361 57.7706 48.8954 58.0639 49.121 58.304C49.3462 58.5437 49.6299 58.7223 49.9448 58.8227C50.3444 58.9731 50.7686 59.0494 51.1962 59.048L48.6582 57.4521ZM53.2862 57.2393C52.9171 57.6494 52.4288 57.9371 51.8879 58.063L51.8878 58.0629L51.8849 58.0638C51.3604 58.2202 50.7983 58.2017 50.2854 58.0111L50.2855 58.011L50.2829 58.0102C50.002 57.9227 49.7662 57.7318 49.6243 57.4773L49.624 57.4768C49.5847 57.408 49.5578 57.3331 49.5444 57.2553L49.5444 57.2553L49.5443 57.2543C49.508 57.0647 49.5195 56.8692 49.578 56.685C49.6365 56.5008 49.74 56.3337 49.8795 56.1984L49.8796 56.1985L49.8817 56.1961C50.1584 55.8914 50.503 55.6541 50.8882 55.5031L50.8883 55.5031L50.8892 55.5027C51.2827 55.339 51.7076 55.2617 52.1344 55.2763L52.1365 55.2763C52.3951 55.2741 52.6514 55.3237 52.8899 55.4222L52.8902 55.4223C53.031 55.4793 53.164 55.5534 53.2862 55.6428V57.2393Z" fill="#7B17C1" stroke="#7B17C1" stroke-width="0.1"/>
<path d="M58.909 59.0504C59.3567 59.0559 59.8008 58.9705 60.2138 58.7997C60.6268 58.6289 61 58.3761 61.3102 58.057C61.949 57.4168 62.3073 56.5538 62.3073 55.6546C62.3073 54.7554 61.9491 53.8924 61.3103 53.2522C61.0018 52.9304 60.6291 52.6754 60.2159 52.5031C59.8026 52.3308 59.3578 52.245 58.9094 52.2511C58.4581 52.2449 58.0104 52.3305 57.5941 52.5027C57.1777 52.6749 56.8016 52.9299 56.4892 53.252C56.0089 53.7261 55.6813 54.3303 55.5481 54.9882C55.4148 55.6464 55.4819 56.3288 55.7409 56.9493C55.9998 57.5698 56.4391 58.1005 57.003 58.4744C57.5668 58.8482 58.2301 59.0486 58.909 59.0504ZM58.909 59.0504C58.9089 59.0504 58.9089 59.0504 58.9088 59.0504L58.9094 59.0004L58.9093 59.0504C58.9092 59.0504 58.9091 59.0504 58.909 59.0504ZM60.6755 53.8822L60.676 53.8826C61.1446 54.3548 61.4071 54.9896 61.4071 55.6507C61.4071 56.3117 61.1447 56.9465 60.6762 57.4187C60.2049 57.8837 59.566 58.1451 58.8997 58.1451C58.2333 58.1451 57.5943 57.8837 57.123 57.4185L57.123 57.4185C56.7693 57.0698 56.5282 56.6255 56.43 56.1417C56.3318 55.6578 56.3809 55.1561 56.5711 54.6998C56.7613 54.2435 57.0842 53.853 57.499 53.5777C57.9138 53.3023 58.4019 53.1545 58.9018 53.153L58.9016 53.103L58.9026 53.153C59.2331 53.1468 59.5613 53.2084 59.8665 53.334C60.1717 53.4595 60.4472 53.6461 60.6755 53.8821L60.6755 53.8822Z" fill="#7B17C1" stroke="#7B17C1" stroke-width="0.1"/>
<path d="M67.7714 56.8324V56.8782V56.8782V56.8324ZM67.7714 56.8324C67.7737 56.5453 67.7108 56.2614 67.5873 56.0016C67.4638 55.742 67.2829 55.5131 67.0581 55.3318C66.593 54.9353 66.004 54.7091 65.3902 54.6911L65.2208 54.6759L65.2208 54.6757L65.2165 54.6757C64.8818 54.6749 64.5544 54.5804 64.2719 54.4033L64.272 54.4032L64.2693 54.4017C64.1775 54.3516 64.0996 54.28 64.0425 54.1932C63.9859 54.1073 63.9515 54.0091 63.942 53.9072C63.9464 53.8065 63.9762 53.7083 64.029 53.6219C64.0823 53.5345 64.1572 53.4619 64.2468 53.4109L64.2469 53.4111L64.2505 53.4086C64.5368 53.2103 64.8807 53.1097 65.2301 53.122L65.2301 53.1221L65.2336 53.122C65.4938 53.1128 65.7529 53.1587 65.9937 53.2565L65.9937 53.2565L65.9957 53.2572C66.1809 53.3233 66.3439 53.4385 66.467 53.59M67.7714 56.8324L66.467 53.59M67.1857 53.6945C67.2285 53.653 67.2623 53.6031 67.2849 53.5481C67.3073 53.4934 67.3183 53.4347 67.317 53.3757C67.3215 53.2695 67.2841 53.1658 67.2127 53.0866L66.4706 53.5945C66.4695 53.593 66.4683 53.5915 66.467 53.59M67.1857 53.6945C67.1855 53.6947 67.1854 53.6948 67.1852 53.695L67.1505 53.6591L67.1861 53.6941C67.186 53.6942 67.1858 53.6944 67.1857 53.6945ZM67.1857 53.6945C67.1438 53.7371 67.0936 53.7709 67.0382 53.7938C66.9829 53.8167 66.9236 53.8283 66.8637 53.828C66.7806 53.8306 66.6985 53.809 66.6276 53.7659C66.5582 53.7237 66.5024 53.6627 66.467 53.59M65.2857 59.0194C65.9336 59.0324 66.5635 58.8083 67.0543 58.39L65.2129 55.5776H65.3248C65.7303 55.5815 66.1216 55.7254 66.4309 55.9842L66.4309 55.9842L66.4324 55.9854C66.5653 56.0884 66.6727 56.22 66.7466 56.37C66.8205 56.52 66.8588 56.6846 66.8588 56.8514C66.8588 57.0181 66.8205 57.1827 66.7466 57.3328C66.6727 57.4828 66.5653 57.6143 66.4324 57.7174L66.4324 57.7173L66.4308 57.7186C66.1102 57.9885 65.7007 58.1331 65.2794 58.1251L65.2794 58.1251L65.2767 58.1251C64.8529 58.14 64.4381 58.0021 64.1098 57.7372L64.1098 57.7371L64.1078 57.7356C63.968 57.634 63.8533 57.5025 63.7722 57.3511C63.691 57.1997 63.6455 57.0321 63.639 56.861L63.6391 56.861L63.6388 56.8583L63.6233 56.6895L63.6219 56.6748L63.6128 56.6631L63.5619 56.5985C63.5601 56.5949 63.5581 56.5913 63.5559 56.5878L63.5456 56.4857L63.5414 56.4442L63.4998 56.4409L63.3102 56.4259C63.2347 56.4059 63.1553 56.4055 63.0796 56.4248C63.0023 56.4444 62.9316 56.4839 62.8745 56.5392L62.8745 56.5392L62.8732 56.5406C62.7904 56.6274 62.7379 56.7383 62.7238 56.857L62.7229 56.8569L62.7235 56.8662L62.7391 57.1003L62.7422 57.1469H62.7614C62.8011 57.3926 62.887 57.6289 63.015 57.8435C63.1502 58.0701 63.3295 58.2679 63.5426 58.4255C64.0175 58.8193 64.6204 59.0302 65.2401 59.0194H65.2857ZM63.7887 55.1639C64.1868 55.4141 64.6465 55.5518 65.118 55.5623L66.3426 52.4658C66.0067 52.3333 65.6479 52.2668 65.2862 52.2701V52.2201H65.286H65.213C64.6724 52.2086 64.1428 52.3719 63.7047 52.6853C63.4945 52.82 63.3223 53.0053 63.2043 53.2239C63.0861 53.4428 63.0262 53.688 63.0303 53.9361L63.0302 53.9361L63.0303 53.9375C63.0411 54.189 63.1165 54.4336 63.2494 54.6483C63.3821 54.8626 63.5677 55.04 63.7887 55.1639Z" fill="#7B17C1" stroke="#7B17C1" stroke-width="0.1"/>
<mask id="path-11-outside-2_253_3738" maskUnits="userSpaceOnUse" x="0.289062" y="0" width="69" height="36" fill="black">
<rect fill="white" x="0.289062" width="69" height="36"/>
<path d="M58.7874 19.7287L52.3326 10.9061C52.3062 10.8706 52.272 10.8414 52.2326 10.8206C52.1932 10.7999 52.1496 10.7882 52.105 10.7864L50.1386 10.7147C50.0914 10.7132 50.0444 10.7228 50.0016 10.7429C49.9589 10.7629 49.9216 10.7927 49.8928 10.8298C49.8647 10.8671 49.8462 10.9106 49.8388 10.9566C49.8314 11.0026 49.8354 11.0496 49.8505 11.0937L52.9365 20.048L46.1939 20.3776L43.7118 17.7485C43.6589 17.6926 43.586 17.6593 43.5087 17.6556L42.2099 17.6108C42.167 17.6102 42.1245 17.6187 42.0852 17.6358C42.046 17.6529 42.0109 17.6781 41.9823 17.7097C41.9537 17.7416 41.9325 17.7794 41.9205 17.8204C41.9084 17.8613 41.9056 17.9044 41.9124 17.9465L42.4861 21.3487C41.145 21.3548 39.7612 21.4638 38.4384 21.2109C36.9358 20.8836 35.5241 20.2349 34.3026 19.3105L34.2358 19.2625C34.4632 18.8342 34.6618 18.3914 34.8304 17.9373C35.412 16.5271 35.5717 14.9817 35.2906 13.4845C34.9166 12.0722 34.0628 10.8296 32.8722 9.96492C31.6412 9.05868 30.2558 8.3775 28.7818 7.95361C28.0463 7.72254 27.2963 7.53925 26.5366 7.40493C26.1023 6.44868 25.5356 5.55675 24.8526 4.75477C22.7689 2.31794 19.5283 1.0813 16.3452 1.00763C13.3406 0.900615 10.4067 1.9226 8.13452 3.86767C7.5377 4.40438 7.00983 5.01144 6.56276 5.67524C4.83293 5.08781 2.78347 5.60886 1.85641 7.36311C0.712641 9.53327 1.29521 12.6868 3.63168 13.8352C3.93951 13.9851 4.26734 14.0911 4.60534 14.1498C4.74621 15.9983 5.22216 17.8068 6.01049 19.4889C5.57844 20.6775 5.35769 21.931 5.35802 23.1939C5.40346 26.009 7.05717 29.0037 10.1187 29.4097C10.9619 29.52 11.8189 29.3714 12.5737 28.9842C12.737 29.2146 12.9176 29.4326 13.1139 29.6364C13.698 30.2337 14.4193 30.683 15.2166 30.9464C15.1758 31.3338 15.1952 31.725 15.2741 32.1066C15.4079 32.7343 15.6743 33.3271 16.0557 33.8462C16.4372 34.3654 16.9252 34.7992 17.4878 35.1194C18.0627 35.4327 18.7048 35.6066 19.3611 35.6266C20.0174 35.6466 20.6691 35.5122 21.2624 35.2345C23.7022 34.1015 24.752 31.0077 24.5365 28.4834C24.6764 28.2903 24.7993 28.0857 24.9039 27.8718C25.2342 27.1725 25.4454 26.4241 25.5288 25.6568C27.4769 25.2282 29.4432 24.4673 30.1955 22.56C31.0551 22.3762 31.8568 21.9894 32.532 21.4327C33.0802 20.9704 33.5495 20.4238 33.9216 19.8139C34.3385 20.1217 34.7755 20.4021 35.2296 20.6534C36.32 21.2834 37.52 21.7063 38.7677 21.9004C39.983 22.013 41.2048 22.0401 42.4239 21.9814L41.6503 25.336C41.6405 25.3773 41.6401 25.4202 41.6491 25.4617C41.658 25.5032 41.6761 25.5422 41.7021 25.576C41.7281 25.6098 41.7612 25.6375 41.7993 25.6571C41.8373 25.6768 41.8793 25.6879 41.9221 25.6898L43.2209 25.7347C43.2592 25.7361 43.2974 25.7301 43.3333 25.717C43.3692 25.7038 43.4022 25.6837 43.4302 25.6579L46.0945 23.2088L52.7971 24.0031L49.078 32.7148C49.0598 32.7582 49.0525 32.8053 49.0568 32.8521C49.061 32.8988 49.0767 32.9439 49.1025 32.9834C49.1274 33.0225 49.1617 33.055 49.2023 33.0781C49.2429 33.1011 49.2887 33.1139 49.3355 33.1154L51.3046 33.1844H51.3135C51.3563 33.185 51.3987 33.1762 51.4376 33.1585C51.4765 33.1409 51.5109 33.1149 51.5383 33.0824L58.6068 24.7279C63.8076 25.0636 67.3305 24.635 68.538 23.5196C68.6769 23.4026 68.7895 23.2581 68.8684 23.0955C68.9474 22.9328 68.9909 22.7556 68.9963 22.5753C68.9971 20.7989 65.2799 19.7644 58.7874 19.7287ZM26.8197 10.2377C27.1069 11.3878 27.2012 12.5767 27.099 13.7569C27.0171 13.727 26.9352 13.7002 26.8531 13.6764C25.3072 13.2349 23.6786 13.1537 22.0955 13.4393C20.3719 11.7426 17.9399 10.7684 15.5047 11.545C14.4698 11.8593 13.5694 12.5033 12.9438 13.3763C12.1226 13.6194 11.397 14.106 10.8652 14.7703C10.4077 15.3426 10.1044 16.0201 9.98343 16.7395C9.86248 17.4589 9.92787 18.1969 10.1735 18.8846C10.565 20.048 11.3052 20.9949 12.0579 21.9423C11.8319 22.608 11.6673 23.2926 11.5662 23.9877C10.9156 23.7721 10.2979 23.4695 9.73036 23.0883C8.40965 22.1565 7.361 20.8971 6.69015 19.4371C7.11193 18.2231 7.65798 17.0417 8.15549 15.9329C8.68321 14.8022 9.095 13.6223 9.38471 12.4106C9.68182 12.1976 9.97931 11.9789 10.278 11.766C11.0637 11.2023 11.8528 10.6387 12.6385 10.075C13.0238 9.79955 13.4429 9.51447 13.8425 9.20291C14.5064 9.16917 15.1662 9.07931 15.8147 8.93432C16.7491 8.7513 17.6789 8.53567 18.611 8.33768C20.4549 7.90628 22.3484 7.71677 24.2425 7.77404C24.8606 7.805 25.4765 7.86905 26.0876 7.96588C26.4036 8.69866 26.6487 9.45933 26.8197 10.2377V10.2377ZM21.5312 18.5009C21.5621 18.6243 21.601 18.7455 21.6477 18.8639C21.0194 19.0367 20.3796 19.1658 19.733 19.2503C19.7691 17.8215 19.2943 16.4258 18.3919 15.3086C18.8348 15.0849 19.2908 14.8876 19.7575 14.7177C20.4498 14.4646 21.1617 14.267 21.8862 14.1268C22.1273 14.3834 22.3498 14.6565 22.5518 14.9441C22.6097 15.0281 22.6684 15.1121 22.7251 15.1992C22.7157 15.2019 22.7099 15.2081 22.7006 15.2111C21.5281 15.8707 21.2065 17.2796 21.5312 18.5009ZM12.7011 17.882C12.916 18.2558 13.2002 18.5862 13.5388 18.8562C13.1683 19.4226 12.8436 20.017 12.5678 20.6339C12.4739 20.8407 12.3861 21.0536 12.301 21.2696C11.2567 19.9505 10.318 18.6014 10.5898 16.866C10.6833 16.3128 10.9029 15.7878 11.232 15.3307C11.5611 14.8737 11.9911 14.4965 12.4894 14.2277C12.2528 14.8153 12.1492 15.4468 12.1858 16.078C12.2223 16.7093 12.3982 17.325 12.7011 17.882ZM17.3923 15.139C16.0182 15.9547 14.8292 17.0415 13.8996 18.3317C13.5089 17.9742 13.2087 17.5309 13.0232 17.0378C12.8376 16.5446 12.772 16.0152 12.8316 15.4924C12.8818 14.9313 13.0636 14.3894 13.3625 13.9097C14.0847 13.779 14.8282 13.8226 15.5298 14.0366C16.2314 14.2507 16.8703 14.6288 17.3923 15.139V15.139ZM13.9178 13.2025C14.2434 12.8769 14.6219 12.6074 15.0375 12.4052C17.2315 11.3309 19.6165 12.0814 21.3292 13.5893C20.2272 13.8414 19.1596 14.2228 18.1492 14.7254C18.0855 14.7584 18.0218 14.7883 17.9581 14.8244C17.1076 13.9509 15.9822 13.3886 14.7661 13.2294C14.4848 13.1938 14.2008 13.1848 13.9178 13.2025V13.2025ZM12.5131 22.5262C12.5908 22.6222 12.6618 22.7181 12.7345 22.8171C13.0995 23.287 13.412 23.7945 13.6666 24.3307C13.1576 24.3299 12.6505 24.2705 12.1554 24.1539C12.228 23.6021 12.3476 23.0573 12.5131 22.5255V22.5262ZM12.7461 21.8248C13.0288 21.0736 13.3741 20.3468 13.7784 19.652C13.8662 19.502 13.9575 19.355 14.0503 19.2111C14.7525 19.5997 15.5263 19.8453 16.3262 19.9336C17.21 20.0437 18.1034 20.0566 18.99 19.972C18.8127 20.9722 18.3463 21.9005 17.647 22.6448C16.7851 23.5686 15.6133 24.1523 14.3489 24.2874C13.9357 23.3954 13.3962 22.566 12.7465 21.8241L12.7461 21.8248ZM14.5245 18.7641C14.4843 18.7433 14.4454 18.7203 14.408 18.6951C15.3233 17.4426 16.4945 16.3939 17.8459 15.6167C18.7092 16.6588 19.1446 17.9834 19.0658 19.3278C19.0565 19.3278 19.0444 19.3308 19.0355 19.3308C17.5593 19.4559 15.8659 19.4797 14.5249 18.7634L14.5245 18.7641ZM22.2314 16.6116C22.3942 16.2346 22.6853 15.9256 23.0544 15.7383C23.4484 16.4462 23.7667 17.1926 24.004 17.9657C23.9706 17.9864 23.9372 18.0017 23.9038 18.0194C23.3756 18.2815 22.8278 18.503 22.2652 18.682C22.1143 18.358 22.0334 18.0065 22.0277 17.6499C22.0219 17.2933 22.0915 16.9394 22.2318 16.6109L22.2314 16.6116ZM24.1857 18.5903C24.2634 18.8719 24.3345 19.154 24.3951 19.4387C24.5163 19.99 24.6196 20.5448 24.7058 21.1085C24.3358 20.9209 23.9847 20.699 23.6572 20.4459C23.2235 20.1128 22.8527 19.707 22.5616 19.2468C23.1191 19.0684 23.6621 18.8487 24.1861 18.5896L24.1857 18.5903ZM24.5741 17.6491C24.3406 16.9186 24.0389 16.2111 23.6727 15.5357C24.4513 15.4315 25.2439 15.5403 25.9641 15.8504C26.0857 15.8983 26.2069 15.9524 26.3253 16.0123C25.8668 16.675 25.2698 17.233 24.5745 17.6484L24.5741 17.6491ZM23.3313 14.9598C23.2676 14.8639 23.2035 14.768 23.1398 14.6751C22.9804 14.4442 22.8082 14.2221 22.6241 14.0098C24.0919 13.7883 25.5921 13.9167 26.9995 14.3843C26.9634 14.5435 26.9219 14.7024 26.8753 14.8612C26.8128 15.0689 26.7337 15.2714 26.6387 15.4667C26.5611 15.4283 26.4869 15.3899 26.4111 15.3589C25.46 14.8838 24.3736 14.7428 23.3305 14.9591L23.3313 14.9598ZM13.3807 8.5679C13.0058 8.55924 12.6378 8.46553 12.3054 8.29402C11.9729 8.1225 11.6848 7.87778 11.4633 7.57874C11.2717 7.27282 11.195 6.91013 11.2465 6.55401C11.2981 6.1979 11.4746 5.87098 11.7453 5.63035C12.4855 4.86604 14.2394 4.5211 14.8433 5.65145C15.2076 6.33481 14.9039 7.15898 14.4639 7.73183C14.2152 8.0451 13.9301 8.32841 13.6145 8.57596C13.5357 8.57711 13.4596 8.57097 13.3807 8.5679ZM12.9803 2.02403C15.932 1.25173 19.0706 1.61944 21.7576 3.05232C23.4949 4.03232 24.8923 5.50765 25.7668 7.28522C25.1239 7.19877 24.4767 7.14664 23.8281 7.12905C22.0873 7.11215 20.3506 7.29929 18.6545 7.68656C17.7686 7.86958 16.8885 8.07332 16.0026 8.25327C15.5502 8.34612 15.0923 8.44512 14.6309 8.50804C15.1261 8.03503 15.4641 7.42443 15.5999 6.75726C15.8426 5.37865 14.8414 4.33999 13.4732 4.30546C12.1682 4.27553 10.7934 5.18373 10.5992 6.51476C10.3929 7.89068 11.6276 8.88291 12.8719 9.13461C12.8292 9.16454 12.7838 9.19754 12.7414 9.22746C11.6734 9.99216 10.6174 10.7745 9.54627 11.5327C9.76765 9.87821 9.54006 8.22948 8.38386 6.88618C8.0446 6.49295 7.63154 6.16826 7.16746 5.93001C8.5743 3.98758 10.6348 2.60302 12.9803 2.02403V2.02403ZM4.58126 11.8178C4.54433 12.3806 4.53927 12.945 4.56612 13.5083C4.37238 13.4653 4.18414 13.4009 4.00491 13.3165C3.43328 13.0312 2.94531 12.6058 2.5877 12.0809C2.23009 11.556 2.0148 10.9493 1.96244 10.3187C1.80298 9.20349 2.08297 8.07038 2.74463 7.15323C3.14163 6.68437 3.66977 6.34159 4.26296 6.16776C4.85615 5.99394 5.48806 5.99679 6.07962 6.17596C6.1271 6.18768 6.17369 6.20268 6.21905 6.22085C5.24171 7.93599 4.68104 9.85199 4.58126 11.8178V11.8178ZM6.43421 7.13826C6.55072 6.90421 6.67966 6.67783 6.81326 6.46066C7.30507 6.7305 7.73399 7.09944 8.0722 7.54356C8.41041 7.98768 8.65036 8.49706 8.77651 9.03869C9.01404 10.0182 9.03379 11.0369 8.83438 12.0246C8.69146 12.1263 8.54892 12.2222 8.40716 12.3212C7.46341 12.9627 6.34877 13.5923 5.20577 13.5831C5.04313 11.366 5.46644 9.14512 6.43421 7.13826V7.13826ZM5.43375 15.4897C5.35607 15.0642 5.29743 14.6356 5.25471 14.2009C6.23986 14.153 7.19467 13.8485 8.02228 13.3184C8.2254 13.1983 8.42581 13.0694 8.6231 12.9405C8.5563 13.1803 8.48329 13.4205 8.40134 13.6572C7.81877 15.3508 6.97832 16.9635 6.32585 18.6272C5.92187 17.6138 5.62298 16.5626 5.43375 15.4897V15.4897ZM10.2768 28.7996C9.49581 28.6808 8.75674 28.3728 8.1256 27.9031C7.49446 27.4333 6.99089 26.8165 6.65986 26.1076C5.7161 24.2164 5.86485 22.2197 6.42295 20.2832C6.48664 20.3983 6.55344 20.5168 6.62335 20.6308C7.71292 22.4983 9.43916 23.9222 11.4936 24.648C11.3626 25.9583 11.6198 27.278 12.2338 28.4466C11.63 28.7494 10.95 28.872 10.2768 28.7996V28.7996ZM12.783 28.1132C12.2524 27.0961 12.0142 25.9548 12.0944 24.8134C12.6864 24.9521 13.2948 25.0097 13.9027 24.9845C14.0892 25.6065 14.0506 26.2731 13.7936 26.87C13.572 27.3642 13.2236 27.7927 12.783 28.1132V28.1132ZM13.117 28.6503C13.3187 28.5024 13.5065 28.3369 13.6782 28.1558C14.0824 27.7301 14.3738 27.2122 14.5262 26.6483C14.6787 26.0844 14.6876 25.492 14.5521 24.9239C15.455 24.7865 16.3157 24.4521 17.0715 23.9451C17.8274 23.438 18.4594 22.771 18.9217 21.9925C20.5921 22.7241 21.9908 23.9509 22.9239 25.5029C22.202 25.6248 21.4886 25.7914 20.7878 26.0017C18.6518 26.6582 15.9755 28.0971 15.3385 30.3186C14.4407 30.0036 13.6644 29.4204 13.117 28.65V28.6503ZM23.2334 26.0796C23.57 26.7804 23.7883 27.5308 23.8797 28.3012C23.1297 29.198 22.1244 29.8516 20.9941 30.1774C19.3719 30.7353 17.6268 30.8472 15.9452 30.5013C15.9994 30.3192 16.0684 30.1418 16.1514 29.9706C16.8283 28.6008 18.2603 27.6953 19.6289 27.096C20.786 26.6185 21.9958 26.2767 23.2334 26.0777V26.0796ZM19.947 34.9751C17.7228 35.2598 15.69 33.2274 15.8388 31.1259C16.2595 31.2263 16.6884 31.2895 17.1204 31.3147C18.6668 31.4012 20.2142 31.1601 21.6586 30.6076C22.5035 30.289 23.276 29.8081 23.9314 29.1925C23.9007 31.5817 22.6019 34.6302 19.947 34.9751ZM24.3834 27.4839C24.2669 26.9618 24.0978 26.4525 23.8785 25.9637C23.9694 25.9461 24.0607 25.9311 24.1504 25.9158C24.3869 25.8774 24.6297 25.8348 24.8755 25.7872C24.7982 26.3739 24.6324 26.9458 24.3834 27.4839V27.4839ZM24.9446 25.1396C24.4926 25.2293 24.0374 25.3045 23.5853 25.3824C22.6046 23.6291 21.0699 22.2411 19.2157 21.4304C19.4409 20.9438 19.5952 20.4281 19.674 19.8987C20.2985 19.8143 20.9176 19.6942 21.5281 19.5392C21.6555 19.5062 21.7798 19.4732 21.9071 19.4371C22.5799 20.5383 23.5986 21.392 24.8079 21.8682C24.8809 22.4556 24.9326 23.0434 24.9567 23.6309C24.9816 24.1333 24.9775 24.6368 24.9446 25.1388V25.1396ZM28.9772 23.3362C28.1126 24.3077 26.829 24.7302 25.5847 25.006C25.6102 24.5858 25.6143 24.1647 25.5971 23.7441C25.5789 23.2069 25.5392 22.6697 25.4806 22.1326C26.4297 22.4624 27.422 22.6552 28.4268 22.705C28.7629 22.7202 29.0996 22.7112 29.4343 22.6782C29.3092 22.9153 29.1557 23.1368 28.9772 23.3377V23.3362ZM29.7116 21.9964C29.2023 22.0798 28.6844 22.1 28.1701 22.0562C27.2164 21.9832 26.2794 21.7679 25.3909 21.4177C25.2996 20.7375 25.1784 20.0629 25.0386 19.3972C24.9609 19.0227 24.8689 18.6448 24.7668 18.2734C25.1431 18.0524 25.4994 17.7996 25.8317 17.5179C26.2437 17.1689 26.5988 16.7593 26.8846 16.3035C27.9417 16.9088 28.8059 17.7948 29.3791 18.8608C29.8789 19.8299 29.9973 20.9476 29.7116 21.9979V21.9964ZM32.6609 20.4286C32.0558 21.0974 31.274 21.5864 30.4033 21.8406C30.9346 19.3343 29.3158 17.0141 27.184 15.7583C27.3571 15.393 27.4923 15.0113 27.5875 14.6191C27.7969 14.715 28.0031 14.8198 28.2035 14.9368C29.5143 15.695 30.5823 16.8553 31.6748 17.8836C32.236 18.4142 32.8128 18.9418 33.4194 19.4272C33.1973 19.7831 32.9435 20.1188 32.6609 20.4301V20.4286ZM33.7371 18.8743C31.7311 17.2466 30.0836 15.0523 27.7017 13.9941C27.7289 13.8203 27.7472 13.6434 27.7592 13.4665C27.8297 11.8816 27.6002 10.2976 27.0827 8.79581C27.0069 8.56214 26.9219 8.33116 26.831 8.10056C27.7478 8.28591 28.6479 8.54447 29.5224 8.8737C31.0647 9.39157 32.4503 10.2843 33.5518 11.4698C34.0859 12.1116 34.4649 12.8653 34.6601 13.6736C34.8553 14.4818 34.8614 15.3234 34.6781 16.1343C34.5014 17.0881 34.1843 18.0111 33.7371 18.8743ZM68.1403 23.0979C67.6273 23.5718 65.664 24.6177 58.4973 24.1412C58.4513 24.1393 58.4056 24.1478 58.3634 24.166C58.3213 24.1842 58.2839 24.2117 58.2542 24.2463L51.1826 32.6039L49.7806 32.5529L53.4826 23.8726C53.5007 23.8316 53.5087 23.7869 53.5062 23.7422C53.5036 23.6975 53.4905 23.654 53.4678 23.6152C53.4451 23.5765 53.4136 23.5435 53.3757 23.5189C53.3378 23.4944 53.2946 23.479 53.2495 23.474L46.0308 22.6195C45.9887 22.6153 45.9461 22.62 45.906 22.6332C45.8658 22.6464 45.8289 22.6679 45.7978 22.6962L43.1214 25.1541L42.2961 25.1273L43.1032 21.6318C43.112 21.5955 43.1131 21.5577 43.1063 21.521L42.5478 18.2055L43.3673 18.2323L45.8614 20.8733C45.8903 20.9041 45.9256 20.9284 45.9649 20.9445C46.0042 20.9606 46.0465 20.9681 46.089 20.9665L53.3517 20.6097C53.3968 20.6071 53.4407 20.5944 53.4801 20.5726C53.5195 20.5508 53.5534 20.5204 53.5793 20.4838C53.6046 20.4469 53.6208 20.4046 53.6266 20.3604C53.6324 20.3161 53.6276 20.2712 53.6127 20.2291L50.5387 11.3105L51.9407 11.3585L58.4006 20.1869C58.4276 20.224 58.4632 20.2543 58.5044 20.2751C58.5456 20.296 58.5912 20.3069 58.6375 20.307C65.8531 20.3277 68.4141 21.5447 68.4141 22.5761C68.4076 22.677 68.3801 22.7754 68.3332 22.8653C68.2862 22.9551 68.221 23.0343 68.1415 23.0979H68.1403Z"/>
</mask>
<path d="M58.7874 19.7287L52.3326 10.9061C52.3062 10.8706 52.272 10.8414 52.2326 10.8206C52.1932 10.7999 52.1496 10.7882 52.105 10.7864L50.1386 10.7147C50.0914 10.7132 50.0444 10.7228 50.0016 10.7429C49.9589 10.7629 49.9216 10.7927 49.8928 10.8298C49.8647 10.8671 49.8462 10.9106 49.8388 10.9566C49.8314 11.0026 49.8354 11.0496 49.8505 11.0937L52.9365 20.048L46.1939 20.3776L43.7118 17.7485C43.6589 17.6926 43.586 17.6593 43.5087 17.6556L42.2099 17.6108C42.167 17.6102 42.1245 17.6187 42.0852 17.6358C42.046 17.6529 42.0109 17.6781 41.9823 17.7097C41.9537 17.7416 41.9325 17.7794 41.9205 17.8204C41.9084 17.8613 41.9056 17.9044 41.9124 17.9465L42.4861 21.3487C41.145 21.3548 39.7612 21.4638 38.4384 21.2109C36.9358 20.8836 35.5241 20.2349 34.3026 19.3105L34.2358 19.2625C34.4632 18.8342 34.6618 18.3914 34.8304 17.9373C35.412 16.5271 35.5717 14.9817 35.2906 13.4845C34.9166 12.0722 34.0628 10.8296 32.8722 9.96492C31.6412 9.05868 30.2558 8.3775 28.7818 7.95361C28.0463 7.72254 27.2963 7.53925 26.5366 7.40493C26.1023 6.44868 25.5356 5.55675 24.8526 4.75477C22.7689 2.31794 19.5283 1.0813 16.3452 1.00763C13.3406 0.900615 10.4067 1.9226 8.13452 3.86767C7.5377 4.40438 7.00983 5.01144 6.56276 5.67524C4.83293 5.08781 2.78347 5.60886 1.85641 7.36311C0.712641 9.53327 1.29521 12.6868 3.63168 13.8352C3.93951 13.9851 4.26734 14.0911 4.60534 14.1498C4.74621 15.9983 5.22216 17.8068 6.01049 19.4889C5.57844 20.6775 5.35769 21.931 5.35802 23.1939C5.40346 26.009 7.05717 29.0037 10.1187 29.4097C10.9619 29.52 11.8189 29.3714 12.5737 28.9842C12.737 29.2146 12.9176 29.4326 13.1139 29.6364C13.698 30.2337 14.4193 30.683 15.2166 30.9464C15.1758 31.3338 15.1952 31.725 15.2741 32.1066C15.4079 32.7343 15.6743 33.3271 16.0557 33.8462C16.4372 34.3654 16.9252 34.7992 17.4878 35.1194C18.0627 35.4327 18.7048 35.6066 19.3611 35.6266C20.0174 35.6466 20.6691 35.5122 21.2624 35.2345C23.7022 34.1015 24.752 31.0077 24.5365 28.4834C24.6764 28.2903 24.7993 28.0857 24.9039 27.8718C25.2342 27.1725 25.4454 26.4241 25.5288 25.6568C27.4769 25.2282 29.4432 24.4673 30.1955 22.56C31.0551 22.3762 31.8568 21.9894 32.532 21.4327C33.0802 20.9704 33.5495 20.4238 33.9216 19.8139C34.3385 20.1217 34.7755 20.4021 35.2296 20.6534C36.32 21.2834 37.52 21.7063 38.7677 21.9004C39.983 22.013 41.2048 22.0401 42.4239 21.9814L41.6503 25.336C41.6405 25.3773 41.6401 25.4202 41.6491 25.4617C41.658 25.5032 41.6761 25.5422 41.7021 25.576C41.7281 25.6098 41.7612 25.6375 41.7993 25.6571C41.8373 25.6768 41.8793 25.6879 41.9221 25.6898L43.2209 25.7347C43.2592 25.7361 43.2974 25.7301 43.3333 25.717C43.3692 25.7038 43.4022 25.6837 43.4302 25.6579L46.0945 23.2088L52.7971 24.0031L49.078 32.7148C49.0598 32.7582 49.0525 32.8053 49.0568 32.8521C49.061 32.8988 49.0767 32.9439 49.1025 32.9834C49.1274 33.0225 49.1617 33.055 49.2023 33.0781C49.2429 33.1011 49.2887 33.1139 49.3355 33.1154L51.3046 33.1844H51.3135C51.3563 33.185 51.3987 33.1762 51.4376 33.1585C51.4765 33.1409 51.5109 33.1149 51.5383 33.0824L58.6068 24.7279C63.8076 25.0636 67.3305 24.635 68.538 23.5196C68.6769 23.4026 68.7895 23.2581 68.8684 23.0955C68.9474 22.9328 68.9909 22.7556 68.9963 22.5753C68.9971 20.7989 65.2799 19.7644 58.7874 19.7287ZM26.8197 10.2377C27.1069 11.3878 27.2012 12.5767 27.099 13.7569C27.0171 13.727 26.9352 13.7002 26.8531 13.6764C25.3072 13.2349 23.6786 13.1537 22.0955 13.4393C20.3719 11.7426 17.9399 10.7684 15.5047 11.545C14.4698 11.8593 13.5694 12.5033 12.9438 13.3763C12.1226 13.6194 11.397 14.106 10.8652 14.7703C10.4077 15.3426 10.1044 16.0201 9.98343 16.7395C9.86248 17.4589 9.92787 18.1969 10.1735 18.8846C10.565 20.048 11.3052 20.9949 12.0579 21.9423C11.8319 22.608 11.6673 23.2926 11.5662 23.9877C10.9156 23.7721 10.2979 23.4695 9.73036 23.0883C8.40965 22.1565 7.361 20.8971 6.69015 19.4371C7.11193 18.2231 7.65798 17.0417 8.15549 15.9329C8.68321 14.8022 9.095 13.6223 9.38471 12.4106C9.68182 12.1976 9.97931 11.9789 10.278 11.766C11.0637 11.2023 11.8528 10.6387 12.6385 10.075C13.0238 9.79955 13.4429 9.51447 13.8425 9.20291C14.5064 9.16917 15.1662 9.07931 15.8147 8.93432C16.7491 8.7513 17.6789 8.53567 18.611 8.33768C20.4549 7.90628 22.3484 7.71677 24.2425 7.77404C24.8606 7.805 25.4765 7.86905 26.0876 7.96588C26.4036 8.69866 26.6487 9.45933 26.8197 10.2377V10.2377ZM21.5312 18.5009C21.5621 18.6243 21.601 18.7455 21.6477 18.8639C21.0194 19.0367 20.3796 19.1658 19.733 19.2503C19.7691 17.8215 19.2943 16.4258 18.3919 15.3086C18.8348 15.0849 19.2908 14.8876 19.7575 14.7177C20.4498 14.4646 21.1617 14.267 21.8862 14.1268C22.1273 14.3834 22.3498 14.6565 22.5518 14.9441C22.6097 15.0281 22.6684 15.1121 22.7251 15.1992C22.7157 15.2019 22.7099 15.2081 22.7006 15.2111C21.5281 15.8707 21.2065 17.2796 21.5312 18.5009ZM12.7011 17.882C12.916 18.2558 13.2002 18.5862 13.5388 18.8562C13.1683 19.4226 12.8436 20.017 12.5678 20.6339C12.4739 20.8407 12.3861 21.0536 12.301 21.2696C11.2567 19.9505 10.318 18.6014 10.5898 16.866C10.6833 16.3128 10.9029 15.7878 11.232 15.3307C11.5611 14.8737 11.9911 14.4965 12.4894 14.2277C12.2528 14.8153 12.1492 15.4468 12.1858 16.078C12.2223 16.7093 12.3982 17.325 12.7011 17.882ZM17.3923 15.139C16.0182 15.9547 14.8292 17.0415 13.8996 18.3317C13.5089 17.9742 13.2087 17.5309 13.0232 17.0378C12.8376 16.5446 12.772 16.0152 12.8316 15.4924C12.8818 14.9313 13.0636 14.3894 13.3625 13.9097C14.0847 13.779 14.8282 13.8226 15.5298 14.0366C16.2314 14.2507 16.8703 14.6288 17.3923 15.139V15.139ZM13.9178 13.2025C14.2434 12.8769 14.6219 12.6074 15.0375 12.4052C17.2315 11.3309 19.6165 12.0814 21.3292 13.5893C20.2272 13.8414 19.1596 14.2228 18.1492 14.7254C18.0855 14.7584 18.0218 14.7883 17.9581 14.8244C17.1076 13.9509 15.9822 13.3886 14.7661 13.2294C14.4848 13.1938 14.2008 13.1848 13.9178 13.2025V13.2025ZM12.5131 22.5262C12.5908 22.6222 12.6618 22.7181 12.7345 22.8171C13.0995 23.287 13.412 23.7945 13.6666 24.3307C13.1576 24.3299 12.6505 24.2705 12.1554 24.1539C12.228 23.6021 12.3476 23.0573 12.5131 22.5255V22.5262ZM12.7461 21.8248C13.0288 21.0736 13.3741 20.3468 13.7784 19.652C13.8662 19.502 13.9575 19.355 14.0503 19.2111C14.7525 19.5997 15.5263 19.8453 16.3262 19.9336C17.21 20.0437 18.1034 20.0566 18.99 19.972C18.8127 20.9722 18.3463 21.9005 17.647 22.6448C16.7851 23.5686 15.6133 24.1523 14.3489 24.2874C13.9357 23.3954 13.3962 22.566 12.7465 21.8241L12.7461 21.8248ZM14.5245 18.7641C14.4843 18.7433 14.4454 18.7203 14.408 18.6951C15.3233 17.4426 16.4945 16.3939 17.8459 15.6167C18.7092 16.6588 19.1446 17.9834 19.0658 19.3278C19.0565 19.3278 19.0444 19.3308 19.0355 19.3308C17.5593 19.4559 15.8659 19.4797 14.5249 18.7634L14.5245 18.7641ZM22.2314 16.6116C22.3942 16.2346 22.6853 15.9256 23.0544 15.7383C23.4484 16.4462 23.7667 17.1926 24.004 17.9657C23.9706 17.9864 23.9372 18.0017 23.9038 18.0194C23.3756 18.2815 22.8278 18.503 22.2652 18.682C22.1143 18.358 22.0334 18.0065 22.0277 17.6499C22.0219 17.2933 22.0915 16.9394 22.2318 16.6109L22.2314 16.6116ZM24.1857 18.5903C24.2634 18.8719 24.3345 19.154 24.3951 19.4387C24.5163 19.99 24.6196 20.5448 24.7058 21.1085C24.3358 20.9209 23.9847 20.699 23.6572 20.4459C23.2235 20.1128 22.8527 19.707 22.5616 19.2468C23.1191 19.0684 23.6621 18.8487 24.1861 18.5896L24.1857 18.5903ZM24.5741 17.6491C24.3406 16.9186 24.0389 16.2111 23.6727 15.5357C24.4513 15.4315 25.2439 15.5403 25.9641 15.8504C26.0857 15.8983 26.2069 15.9524 26.3253 16.0123C25.8668 16.675 25.2698 17.233 24.5745 17.6484L24.5741 17.6491ZM23.3313 14.9598C23.2676 14.8639 23.2035 14.768 23.1398 14.6751C22.9804 14.4442 22.8082 14.2221 22.6241 14.0098C24.0919 13.7883 25.5921 13.9167 26.9995 14.3843C26.9634 14.5435 26.9219 14.7024 26.8753 14.8612C26.8128 15.0689 26.7337 15.2714 26.6387 15.4667C26.5611 15.4283 26.4869 15.3899 26.4111 15.3589C25.46 14.8838 24.3736 14.7428 23.3305 14.9591L23.3313 14.9598ZM13.3807 8.5679C13.0058 8.55924 12.6378 8.46553 12.3054 8.29402C11.9729 8.1225 11.6848 7.87778 11.4633 7.57874C11.2717 7.27282 11.195 6.91013 11.2465 6.55401C11.2981 6.1979 11.4746 5.87098 11.7453 5.63035C12.4855 4.86604 14.2394 4.5211 14.8433 5.65145C15.2076 6.33481 14.9039 7.15898 14.4639 7.73183C14.2152 8.0451 13.9301 8.32841 13.6145 8.57596C13.5357 8.57711 13.4596 8.57097 13.3807 8.5679ZM12.9803 2.02403C15.932 1.25173 19.0706 1.61944 21.7576 3.05232C23.4949 4.03232 24.8923 5.50765 25.7668 7.28522C25.1239 7.19877 24.4767 7.14664 23.8281 7.12905C22.0873 7.11215 20.3506 7.29929 18.6545 7.68656C17.7686 7.86958 16.8885 8.07332 16.0026 8.25327C15.5502 8.34612 15.0923 8.44512 14.6309 8.50804C15.1261 8.03503 15.4641 7.42443 15.5999 6.75726C15.8426 5.37865 14.8414 4.33999 13.4732 4.30546C12.1682 4.27553 10.7934 5.18373 10.5992 6.51476C10.3929 7.89068 11.6276 8.88291 12.8719 9.13461C12.8292 9.16454 12.7838 9.19754 12.7414 9.22746C11.6734 9.99216 10.6174 10.7745 9.54627 11.5327C9.76765 9.87821 9.54006 8.22948 8.38386 6.88618C8.0446 6.49295 7.63154 6.16826 7.16746 5.93001C8.5743 3.98758 10.6348 2.60302 12.9803 2.02403V2.02403ZM4.58126 11.8178C4.54433 12.3806 4.53927 12.945 4.56612 13.5083C4.37238 13.4653 4.18414 13.4009 4.00491 13.3165C3.43328 13.0312 2.94531 12.6058 2.5877 12.0809C2.23009 11.556 2.0148 10.9493 1.96244 10.3187C1.80298 9.20349 2.08297 8.07038 2.74463 7.15323C3.14163 6.68437 3.66977 6.34159 4.26296 6.16776C4.85615 5.99394 5.48806 5.99679 6.07962 6.17596C6.1271 6.18768 6.17369 6.20268 6.21905 6.22085C5.24171 7.93599 4.68104 9.85199 4.58126 11.8178V11.8178ZM6.43421 7.13826C6.55072 6.90421 6.67966 6.67783 6.81326 6.46066C7.30507 6.7305 7.73399 7.09944 8.0722 7.54356C8.41041 7.98768 8.65036 8.49706 8.77651 9.03869C9.01404 10.0182 9.03379 11.0369 8.83438 12.0246C8.69146 12.1263 8.54892 12.2222 8.40716 12.3212C7.46341 12.9627 6.34877 13.5923 5.20577 13.5831C5.04313 11.366 5.46644 9.14512 6.43421 7.13826V7.13826ZM5.43375 15.4897C5.35607 15.0642 5.29743 14.6356 5.25471 14.2009C6.23986 14.153 7.19467 13.8485 8.02228 13.3184C8.2254 13.1983 8.42581 13.0694 8.6231 12.9405C8.5563 13.1803 8.48329 13.4205 8.40134 13.6572C7.81877 15.3508 6.97832 16.9635 6.32585 18.6272C5.92187 17.6138 5.62298 16.5626 5.43375 15.4897V15.4897ZM10.2768 28.7996C9.49581 28.6808 8.75674 28.3728 8.1256 27.9031C7.49446 27.4333 6.99089 26.8165 6.65986 26.1076C5.7161 24.2164 5.86485 22.2197 6.42295 20.2832C6.48664 20.3983 6.55344 20.5168 6.62335 20.6308C7.71292 22.4983 9.43916 23.9222 11.4936 24.648C11.3626 25.9583 11.6198 27.278 12.2338 28.4466C11.63 28.7494 10.95 28.872 10.2768 28.7996V28.7996ZM12.783 28.1132C12.2524 27.0961 12.0142 25.9548 12.0944 24.8134C12.6864 24.9521 13.2948 25.0097 13.9027 24.9845C14.0892 25.6065 14.0506 26.2731 13.7936 26.87C13.572 27.3642 13.2236 27.7927 12.783 28.1132V28.1132ZM13.117 28.6503C13.3187 28.5024 13.5065 28.3369 13.6782 28.1558C14.0824 27.7301 14.3738 27.2122 14.5262 26.6483C14.6787 26.0844 14.6876 25.492 14.5521 24.9239C15.455 24.7865 16.3157 24.4521 17.0715 23.9451C17.8274 23.438 18.4594 22.771 18.9217 21.9925C20.5921 22.7241 21.9908 23.9509 22.9239 25.5029C22.202 25.6248 21.4886 25.7914 20.7878 26.0017C18.6518 26.6582 15.9755 28.0971 15.3385 30.3186C14.4407 30.0036 13.6644 29.4204 13.117 28.65V28.6503ZM23.2334 26.0796C23.57 26.7804 23.7883 27.5308 23.8797 28.3012C23.1297 29.198 22.1244 29.8516 20.9941 30.1774C19.3719 30.7353 17.6268 30.8472 15.9452 30.5013C15.9994 30.3192 16.0684 30.1418 16.1514 29.9706C16.8283 28.6008 18.2603 27.6953 19.6289 27.096C20.786 26.6185 21.9958 26.2767 23.2334 26.0777V26.0796ZM19.947 34.9751C17.7228 35.2598 15.69 33.2274 15.8388 31.1259C16.2595 31.2263 16.6884 31.2895 17.1204 31.3147C18.6668 31.4012 20.2142 31.1601 21.6586 30.6076C22.5035 30.289 23.276 29.8081 23.9314 29.1925C23.9007 31.5817 22.6019 34.6302 19.947 34.9751ZM24.3834 27.4839C24.2669 26.9618 24.0978 26.4525 23.8785 25.9637C23.9694 25.9461 24.0607 25.9311 24.1504 25.9158C24.3869 25.8774 24.6297 25.8348 24.8755 25.7872C24.7982 26.3739 24.6324 26.9458 24.3834 27.4839V27.4839ZM24.9446 25.1396C24.4926 25.2293 24.0374 25.3045 23.5853 25.3824C22.6046 23.6291 21.0699 22.2411 19.2157 21.4304C19.4409 20.9438 19.5952 20.4281 19.674 19.8987C20.2985 19.8143 20.9176 19.6942 21.5281 19.5392C21.6555 19.5062 21.7798 19.4732 21.9071 19.4371C22.5799 20.5383 23.5986 21.392 24.8079 21.8682C24.8809 22.4556 24.9326 23.0434 24.9567 23.6309C24.9816 24.1333 24.9775 24.6368 24.9446 25.1388V25.1396ZM28.9772 23.3362C28.1126 24.3077 26.829 24.7302 25.5847 25.006C25.6102 24.5858 25.6143 24.1647 25.5971 23.7441C25.5789 23.2069 25.5392 22.6697 25.4806 22.1326C26.4297 22.4624 27.422 22.6552 28.4268 22.705C28.7629 22.7202 29.0996 22.7112 29.4343 22.6782C29.3092 22.9153 29.1557 23.1368 28.9772 23.3377V23.3362ZM29.7116 21.9964C29.2023 22.0798 28.6844 22.1 28.1701 22.0562C27.2164 21.9832 26.2794 21.7679 25.3909 21.4177C25.2996 20.7375 25.1784 20.0629 25.0386 19.3972C24.9609 19.0227 24.8689 18.6448 24.7668 18.2734C25.1431 18.0524 25.4994 17.7996 25.8317 17.5179C26.2437 17.1689 26.5988 16.7593 26.8846 16.3035C27.9417 16.9088 28.8059 17.7948 29.3791 18.8608C29.8789 19.8299 29.9973 20.9476 29.7116 21.9979V21.9964ZM32.6609 20.4286C32.0558 21.0974 31.274 21.5864 30.4033 21.8406C30.9346 19.3343 29.3158 17.0141 27.184 15.7583C27.3571 15.393 27.4923 15.0113 27.5875 14.6191C27.7969 14.715 28.0031 14.8198 28.2035 14.9368C29.5143 15.695 30.5823 16.8553 31.6748 17.8836C32.236 18.4142 32.8128 18.9418 33.4194 19.4272C33.1973 19.7831 32.9435 20.1188 32.6609 20.4301V20.4286ZM33.7371 18.8743C31.7311 17.2466 30.0836 15.0523 27.7017 13.9941C27.7289 13.8203 27.7472 13.6434 27.7592 13.4665C27.8297 11.8816 27.6002 10.2976 27.0827 8.79581C27.0069 8.56214 26.9219 8.33116 26.831 8.10056C27.7478 8.28591 28.6479 8.54447 29.5224 8.8737C31.0647 9.39157 32.4503 10.2843 33.5518 11.4698C34.0859 12.1116 34.4649 12.8653 34.6601 13.6736C34.8553 14.4818 34.8614 15.3234 34.6781 16.1343C34.5014 17.0881 34.1843 18.0111 33.7371 18.8743ZM68.1403 23.0979C67.6273 23.5718 65.664 24.6177 58.4973 24.1412C58.4513 24.1393 58.4056 24.1478 58.3634 24.166C58.3213 24.1842 58.2839 24.2117 58.2542 24.2463L51.1826 32.6039L49.7806 32.5529L53.4826 23.8726C53.5007 23.8316 53.5087 23.7869 53.5062 23.7422C53.5036 23.6975 53.4905 23.654 53.4678 23.6152C53.4451 23.5765 53.4136 23.5435 53.3757 23.5189C53.3378 23.4944 53.2946 23.479 53.2495 23.474L46.0308 22.6195C45.9887 22.6153 45.9461 22.62 45.906 22.6332C45.8658 22.6464 45.8289 22.6679 45.7978 22.6962L43.1214 25.1541L42.2961 25.1273L43.1032 21.6318C43.112 21.5955 43.1131 21.5577 43.1063 21.521L42.5478 18.2055L43.3673 18.2323L45.8614 20.8733C45.8903 20.9041 45.9256 20.9284 45.9649 20.9445C46.0042 20.9606 46.0465 20.9681 46.089 20.9665L53.3517 20.6097C53.3968 20.6071 53.4407 20.5944 53.4801 20.5726C53.5195 20.5508 53.5534 20.5204 53.5793 20.4838C53.6046 20.4469 53.6208 20.4046 53.6266 20.3604C53.6324 20.3161 53.6276 20.2712 53.6127 20.2291L50.5387 11.3105L51.9407 11.3585L58.4006 20.1869C58.4276 20.224 58.4632 20.2543 58.5044 20.2751C58.5456 20.296 58.5912 20.3069 58.6375 20.307C65.8531 20.3277 68.4141 21.5447 68.4141 22.5761C68.4076 22.677 68.3801 22.7754 68.3332 22.8653C68.2862 22.9551 68.221 23.0343 68.1415 23.0979H68.1403Z" fill="#7B17C1"/>
<path d="M58.7874 19.7287L52.3326 10.9061C52.3062 10.8706 52.272 10.8414 52.2326 10.8206C52.1932 10.7999 52.1496 10.7882 52.105 10.7864L50.1386 10.7147C50.0914 10.7132 50.0444 10.7228 50.0016 10.7429C49.9589 10.7629 49.9216 10.7927 49.8928 10.8298C49.8647 10.8671 49.8462 10.9106 49.8388 10.9566C49.8314 11.0026 49.8354 11.0496 49.8505 11.0937L52.9365 20.048L46.1939 20.3776L43.7118 17.7485C43.6589 17.6926 43.586 17.6593 43.5087 17.6556L42.2099 17.6108C42.167 17.6102 42.1245 17.6187 42.0852 17.6358C42.046 17.6529 42.0109 17.6781 41.9823 17.7097C41.9537 17.7416 41.9325 17.7794 41.9205 17.8204C41.9084 17.8613 41.9056 17.9044 41.9124 17.9465L42.4861 21.3487C41.145 21.3548 39.7612 21.4638 38.4384 21.2109C36.9358 20.8836 35.5241 20.2349 34.3026 19.3105L34.2358 19.2625C34.4632 18.8342 34.6618 18.3914 34.8304 17.9373C35.412 16.5271 35.5717 14.9817 35.2906 13.4845C34.9166 12.0722 34.0628 10.8296 32.8722 9.96492C31.6412 9.05868 30.2558 8.3775 28.7818 7.95361C28.0463 7.72254 27.2963 7.53925 26.5366 7.40493C26.1023 6.44868 25.5356 5.55675 24.8526 4.75477C22.7689 2.31794 19.5283 1.0813 16.3452 1.00763C13.3406 0.900615 10.4067 1.9226 8.13452 3.86767C7.5377 4.40438 7.00983 5.01144 6.56276 5.67524C4.83293 5.08781 2.78347 5.60886 1.85641 7.36311C0.712641 9.53327 1.29521 12.6868 3.63168 13.8352C3.93951 13.9851 4.26734 14.0911 4.60534 14.1498C4.74621 15.9983 5.22216 17.8068 6.01049 19.4889C5.57844 20.6775 5.35769 21.931 5.35802 23.1939C5.40346 26.009 7.05717 29.0037 10.1187 29.4097C10.9619 29.52 11.8189 29.3714 12.5737 28.9842C12.737 29.2146 12.9176 29.4326 13.1139 29.6364C13.698 30.2337 14.4193 30.683 15.2166 30.9464C15.1758 31.3338 15.1952 31.725 15.2741 32.1066C15.4079 32.7343 15.6743 33.3271 16.0557 33.8462C16.4372 34.3654 16.9252 34.7992 17.4878 35.1194C18.0627 35.4327 18.7048 35.6066 19.3611 35.6266C20.0174 35.6466 20.6691 35.5122 21.2624 35.2345C23.7022 34.1015 24.752 31.0077 24.5365 28.4834C24.6764 28.2903 24.7993 28.0857 24.9039 27.8718C25.2342 27.1725 25.4454 26.4241 25.5288 25.6568C27.4769 25.2282 29.4432 24.4673 30.1955 22.56C31.0551 22.3762 31.8568 21.9894 32.532 21.4327C33.0802 20.9704 33.5495 20.4238 33.9216 19.8139C34.3385 20.1217 34.7755 20.4021 35.2296 20.6534C36.32 21.2834 37.52 21.7063 38.7677 21.9004C39.983 22.013 41.2048 22.0401 42.4239 21.9814L41.6503 25.336C41.6405 25.3773 41.6401 25.4202 41.6491 25.4617C41.658 25.5032 41.6761 25.5422 41.7021 25.576C41.7281 25.6098 41.7612 25.6375 41.7993 25.6571C41.8373 25.6768 41.8793 25.6879 41.9221 25.6898L43.2209 25.7347C43.2592 25.7361 43.2974 25.7301 43.3333 25.717C43.3692 25.7038 43.4022 25.6837 43.4302 25.6579L46.0945 23.2088L52.7971 24.0031L49.078 32.7148C49.0598 32.7582 49.0525 32.8053 49.0568 32.8521C49.061 32.8988 49.0767 32.9439 49.1025 32.9834C49.1274 33.0225 49.1617 33.055 49.2023 33.0781C49.2429 33.1011 49.2887 33.1139 49.3355 33.1154L51.3046 33.1844H51.3135C51.3563 33.185 51.3987 33.1762 51.4376 33.1585C51.4765 33.1409 51.5109 33.1149 51.5383 33.0824L58.6068 24.7279C63.8076 25.0636 67.3305 24.635 68.538 23.5196C68.6769 23.4026 68.7895 23.2581 68.8684 23.0955C68.9474 22.9328 68.9909 22.7556 68.9963 22.5753C68.9971 20.7989 65.2799 19.7644 58.7874 19.7287ZM26.8197 10.2377C27.1069 11.3878 27.2012 12.5767 27.099 13.7569C27.0171 13.727 26.9352 13.7002 26.8531 13.6764C25.3072 13.2349 23.6786 13.1537 22.0955 13.4393C20.3719 11.7426 17.9399 10.7684 15.5047 11.545C14.4698 11.8593 13.5694 12.5033 12.9438 13.3763C12.1226 13.6194 11.397 14.106 10.8652 14.7703C10.4077 15.3426 10.1044 16.0201 9.98343 16.7395C9.86248 17.4589 9.92787 18.1969 10.1735 18.8846C10.565 20.048 11.3052 20.9949 12.0579 21.9423C11.8319 22.608 11.6673 23.2926 11.5662 23.9877C10.9156 23.7721 10.2979 23.4695 9.73036 23.0883C8.40965 22.1565 7.361 20.8971 6.69015 19.4371C7.11193 18.2231 7.65798 17.0417 8.15549 15.9329C8.68321 14.8022 9.095 13.6223 9.38471 12.4106C9.68182 12.1976 9.97931 11.9789 10.278 11.766C11.0637 11.2023 11.8528 10.6387 12.6385 10.075C13.0238 9.79955 13.4429 9.51447 13.8425 9.20291C14.5064 9.16917 15.1662 9.07931 15.8147 8.93432C16.7491 8.7513 17.6789 8.53567 18.611 8.33768C20.4549 7.90628 22.3484 7.71677 24.2425 7.77404C24.8606 7.805 25.4765 7.86905 26.0876 7.96588C26.4036 8.69866 26.6487 9.45933 26.8197 10.2377V10.2377ZM21.5312 18.5009C21.5621 18.6243 21.601 18.7455 21.6477 18.8639C21.0194 19.0367 20.3796 19.1658 19.733 19.2503C19.7691 17.8215 19.2943 16.4258 18.3919 15.3086C18.8348 15.0849 19.2908 14.8876 19.7575 14.7177C20.4498 14.4646 21.1617 14.267 21.8862 14.1268C22.1273 14.3834 22.3498 14.6565 22.5518 14.9441C22.6097 15.0281 22.6684 15.1121 22.7251 15.1992C22.7157 15.2019 22.7099 15.2081 22.7006 15.2111C21.5281 15.8707 21.2065 17.2796 21.5312 18.5009ZM12.7011 17.882C12.916 18.2558 13.2002 18.5862 13.5388 18.8562C13.1683 19.4226 12.8436 20.017 12.5678 20.6339C12.4739 20.8407 12.3861 21.0536 12.301 21.2696C11.2567 19.9505 10.318 18.6014 10.5898 16.866C10.6833 16.3128 10.9029 15.7878 11.232 15.3307C11.5611 14.8737 11.9911 14.4965 12.4894 14.2277C12.2528 14.8153 12.1492 15.4468 12.1858 16.078C12.2223 16.7093 12.3982 17.325 12.7011 17.882ZM17.3923 15.139C16.0182 15.9547 14.8292 17.0415 13.8996 18.3317C13.5089 17.9742 13.2087 17.5309 13.0232 17.0378C12.8376 16.5446 12.772 16.0152 12.8316 15.4924C12.8818 14.9313 13.0636 14.3894 13.3625 13.9097C14.0847 13.779 14.8282 13.8226 15.5298 14.0366C16.2314 14.2507 16.8703 14.6288 17.3923 15.139V15.139ZM13.9178 13.2025C14.2434 12.8769 14.6219 12.6074 15.0375 12.4052C17.2315 11.3309 19.6165 12.0814 21.3292 13.5893C20.2272 13.8414 19.1596 14.2228 18.1492 14.7254C18.0855 14.7584 18.0218 14.7883 17.9581 14.8244C17.1076 13.9509 15.9822 13.3886 14.7661 13.2294C14.4848 13.1938 14.2008 13.1848 13.9178 13.2025V13.2025ZM12.5131 22.5262C12.5908 22.6222 12.6618 22.7181 12.7345 22.8171C13.0995 23.287 13.412 23.7945 13.6666 24.3307C13.1576 24.3299 12.6505 24.2705 12.1554 24.1539C12.228 23.6021 12.3476 23.0573 12.5131 22.5255V22.5262ZM12.7461 21.8248C13.0288 21.0736 13.3741 20.3468 13.7784 19.652C13.8662 19.502 13.9575 19.355 14.0503 19.2111C14.7525 19.5997 15.5263 19.8453 16.3262 19.9336C17.21 20.0437 18.1034 20.0566 18.99 19.972C18.8127 20.9722 18.3463 21.9005 17.647 22.6448C16.7851 23.5686 15.6133 24.1523 14.3489 24.2874C13.9357 23.3954 13.3962 22.566 12.7465 21.8241L12.7461 21.8248ZM14.5245 18.7641C14.4843 18.7433 14.4454 18.7203 14.408 18.6951C15.3233 17.4426 16.4945 16.3939 17.8459 15.6167C18.7092 16.6588 19.1446 17.9834 19.0658 19.3278C19.0565 19.3278 19.0444 19.3308 19.0355 19.3308C17.5593 19.4559 15.8659 19.4797 14.5249 18.7634L14.5245 18.7641ZM22.2314 16.6116C22.3942 16.2346 22.6853 15.9256 23.0544 15.7383C23.4484 16.4462 23.7667 17.1926 24.004 17.9657C23.9706 17.9864 23.9372 18.0017 23.9038 18.0194C23.3756 18.2815 22.8278 18.503 22.2652 18.682C22.1143 18.358 22.0334 18.0065 22.0277 17.6499C22.0219 17.2933 22.0915 16.9394 22.2318 16.6109L22.2314 16.6116ZM24.1857 18.5903C24.2634 18.8719 24.3345 19.154 24.3951 19.4387C24.5163 19.99 24.6196 20.5448 24.7058 21.1085C24.3358 20.9209 23.9847 20.699 23.6572 20.4459C23.2235 20.1128 22.8527 19.707 22.5616 19.2468C23.1191 19.0684 23.6621 18.8487 24.1861 18.5896L24.1857 18.5903ZM24.5741 17.6491C24.3406 16.9186 24.0389 16.2111 23.6727 15.5357C24.4513 15.4315 25.2439 15.5403 25.9641 15.8504C26.0857 15.8983 26.2069 15.9524 26.3253 16.0123C25.8668 16.675 25.2698 17.233 24.5745 17.6484L24.5741 17.6491ZM23.3313 14.9598C23.2676 14.8639 23.2035 14.768 23.1398 14.6751C22.9804 14.4442 22.8082 14.2221 22.6241 14.0098C24.0919 13.7883 25.5921 13.9167 26.9995 14.3843C26.9634 14.5435 26.9219 14.7024 26.8753 14.8612C26.8128 15.0689 26.7337 15.2714 26.6387 15.4667C26.5611 15.4283 26.4869 15.3899 26.4111 15.3589C25.46 14.8838 24.3736 14.7428 23.3305 14.9591L23.3313 14.9598ZM13.3807 8.5679C13.0058 8.55924 12.6378 8.46553 12.3054 8.29402C11.9729 8.1225 11.6848 7.87778 11.4633 7.57874C11.2717 7.27282 11.195 6.91013 11.2465 6.55401C11.2981 6.1979 11.4746 5.87098 11.7453 5.63035C12.4855 4.86604 14.2394 4.5211 14.8433 5.65145C15.2076 6.33481 14.9039 7.15898 14.4639 7.73183C14.2152 8.0451 13.9301 8.32841 13.6145 8.57596C13.5357 8.57711 13.4596 8.57097 13.3807 8.5679ZM12.9803 2.02403C15.932 1.25173 19.0706 1.61944 21.7576 3.05232C23.4949 4.03232 24.8923 5.50765 25.7668 7.28522C25.1239 7.19877 24.4767 7.14664 23.8281 7.12905C22.0873 7.11215 20.3506 7.29929 18.6545 7.68656C17.7686 7.86958 16.8885 8.07332 16.0026 8.25327C15.5502 8.34612 15.0923 8.44512 14.6309 8.50804C15.1261 8.03503 15.4641 7.42443 15.5999 6.75726C15.8426 5.37865 14.8414 4.33999 13.4732 4.30546C12.1682 4.27553 10.7934 5.18373 10.5992 6.51476C10.3929 7.89068 11.6276 8.88291 12.8719 9.13461C12.8292 9.16454 12.7838 9.19754 12.7414 9.22746C11.6734 9.99216 10.6174 10.7745 9.54627 11.5327C9.76765 9.87821 9.54006 8.22948 8.38386 6.88618C8.0446 6.49295 7.63154 6.16826 7.16746 5.93001C8.5743 3.98758 10.6348 2.60302 12.9803 2.02403V2.02403ZM4.58126 11.8178C4.54433 12.3806 4.53927 12.945 4.56612 13.5083C4.37238 13.4653 4.18414 13.4009 4.00491 13.3165C3.43328 13.0312 2.94531 12.6058 2.5877 12.0809C2.23009 11.556 2.0148 10.9493 1.96244 10.3187C1.80298 9.20349 2.08297 8.07038 2.74463 7.15323C3.14163 6.68437 3.66977 6.34159 4.26296 6.16776C4.85615 5.99394 5.48806 5.99679 6.07962 6.17596C6.1271 6.18768 6.17369 6.20268 6.21905 6.22085C5.24171 7.93599 4.68104 9.85199 4.58126 11.8178V11.8178ZM6.43421 7.13826C6.55072 6.90421 6.67966 6.67783 6.81326 6.46066C7.30507 6.7305 7.73399 7.09944 8.0722 7.54356C8.41041 7.98768 8.65036 8.49706 8.77651 9.03869C9.01404 10.0182 9.03379 11.0369 8.83438 12.0246C8.69146 12.1263 8.54892 12.2222 8.40716 12.3212C7.46341 12.9627 6.34877 13.5923 5.20577 13.5831C5.04313 11.366 5.46644 9.14512 6.43421 7.13826V7.13826ZM5.43375 15.4897C5.35607 15.0642 5.29743 14.6356 5.25471 14.2009C6.23986 14.153 7.19467 13.8485 8.02228 13.3184C8.2254 13.1983 8.42581 13.0694 8.6231 12.9405C8.5563 13.1803 8.48329 13.4205 8.40134 13.6572C7.81877 15.3508 6.97832 16.9635 6.32585 18.6272C5.92187 17.6138 5.62298 16.5626 5.43375 15.4897V15.4897ZM10.2768 28.7996C9.49581 28.6808 8.75674 28.3728 8.1256 27.9031C7.49446 27.4333 6.99089 26.8165 6.65986 26.1076C5.7161 24.2164 5.86485 22.2197 6.42295 20.2832C6.48664 20.3983 6.55344 20.5168 6.62335 20.6308C7.71292 22.4983 9.43916 23.9222 11.4936 24.648C11.3626 25.9583 11.6198 27.278 12.2338 28.4466C11.63 28.7494 10.95 28.872 10.2768 28.7996V28.7996ZM12.783 28.1132C12.2524 27.0961 12.0142 25.9548 12.0944 24.8134C12.6864 24.9521 13.2948 25.0097 13.9027 24.9845C14.0892 25.6065 14.0506 26.2731 13.7936 26.87C13.572 27.3642 13.2236 27.7927 12.783 28.1132V28.1132ZM13.117 28.6503C13.3187 28.5024 13.5065 28.3369 13.6782 28.1558C14.0824 27.7301 14.3738 27.2122 14.5262 26.6483C14.6787 26.0844 14.6876 25.492 14.5521 24.9239C15.455 24.7865 16.3157 24.4521 17.0715 23.9451C17.8274 23.438 18.4594 22.771 18.9217 21.9925C20.5921 22.7241 21.9908 23.9509 22.9239 25.5029C22.202 25.6248 21.4886 25.7914 20.7878 26.0017C18.6518 26.6582 15.9755 28.0971 15.3385 30.3186C14.4407 30.0036 13.6644 29.4204 13.117 28.65V28.6503ZM23.2334 26.0796C23.57 26.7804 23.7883 27.5308 23.8797 28.3012C23.1297 29.198 22.1244 29.8516 20.9941 30.1774C19.3719 30.7353 17.6268 30.8472 15.9452 30.5013C15.9994 30.3192 16.0684 30.1418 16.1514 29.9706C16.8283 28.6008 18.2603 27.6953 19.6289 27.096C20.786 26.6185 21.9958 26.2767 23.2334 26.0777V26.0796ZM19.947 34.9751C17.7228 35.2598 15.69 33.2274 15.8388 31.1259C16.2595 31.2263 16.6884 31.2895 17.1204 31.3147C18.6668 31.4012 20.2142 31.1601 21.6586 30.6076C22.5035 30.289 23.276 29.8081 23.9314 29.1925C23.9007 31.5817 22.6019 34.6302 19.947 34.9751ZM24.3834 27.4839C24.2669 26.9618 24.0978 26.4525 23.8785 25.9637C23.9694 25.9461 24.0607 25.9311 24.1504 25.9158C24.3869 25.8774 24.6297 25.8348 24.8755 25.7872C24.7982 26.3739 24.6324 26.9458 24.3834 27.4839V27.4839ZM24.9446 25.1396C24.4926 25.2293 24.0374 25.3045 23.5853 25.3824C22.6046 23.6291 21.0699 22.2411 19.2157 21.4304C19.4409 20.9438 19.5952 20.4281 19.674 19.8987C20.2985 19.8143 20.9176 19.6942 21.5281 19.5392C21.6555 19.5062 21.7798 19.4732 21.9071 19.4371C22.5799 20.5383 23.5986 21.392 24.8079 21.8682C24.8809 22.4556 24.9326 23.0434 24.9567 23.6309C24.9816 24.1333 24.9775 24.6368 24.9446 25.1388V25.1396ZM28.9772 23.3362C28.1126 24.3077 26.829 24.7302 25.5847 25.006C25.6102 24.5858 25.6143 24.1647 25.5971 23.7441C25.5789 23.2069 25.5392 22.6697 25.4806 22.1326C26.4297 22.4624 27.422 22.6552 28.4268 22.705C28.7629 22.7202 29.0996 22.7112 29.4343 22.6782C29.3092 22.9153 29.1557 23.1368 28.9772 23.3377V23.3362ZM29.7116 21.9964C29.2023 22.0798 28.6844 22.1 28.1701 22.0562C27.2164 21.9832 26.2794 21.7679 25.3909 21.4177C25.2996 20.7375 25.1784 20.0629 25.0386 19.3972C24.9609 19.0227 24.8689 18.6448 24.7668 18.2734C25.1431 18.0524 25.4994 17.7996 25.8317 17.5179C26.2437 17.1689 26.5988 16.7593 26.8846 16.3035C27.9417 16.9088 28.8059 17.7948 29.3791 18.8608C29.8789 19.8299 29.9973 20.9476 29.7116 21.9979V21.9964ZM32.6609 20.4286C32.0558 21.0974 31.274 21.5864 30.4033 21.8406C30.9346 19.3343 29.3158 17.0141 27.184 15.7583C27.3571 15.393 27.4923 15.0113 27.5875 14.6191C27.7969 14.715 28.0031 14.8198 28.2035 14.9368C29.5143 15.695 30.5823 16.8553 31.6748 17.8836C32.236 18.4142 32.8128 18.9418 33.4194 19.4272C33.1973 19.7831 32.9435 20.1188 32.6609 20.4301V20.4286ZM33.7371 18.8743C31.7311 17.2466 30.0836 15.0523 27.7017 13.9941C27.7289 13.8203 27.7472 13.6434 27.7592 13.4665C27.8297 11.8816 27.6002 10.2976 27.0827 8.79581C27.0069 8.56214 26.9219 8.33116 26.831 8.10056C27.7478 8.28591 28.6479 8.54447 29.5224 8.8737C31.0647 9.39157 32.4503 10.2843 33.5518 11.4698C34.0859 12.1116 34.4649 12.8653 34.6601 13.6736C34.8553 14.4818 34.8614 15.3234 34.6781 16.1343C34.5014 17.0881 34.1843 18.0111 33.7371 18.8743ZM68.1403 23.0979C67.6273 23.5718 65.664 24.6177 58.4973 24.1412C58.4513 24.1393 58.4056 24.1478 58.3634 24.166C58.3213 24.1842 58.2839 24.2117 58.2542 24.2463L51.1826 32.6039L49.7806 32.5529L53.4826 23.8726C53.5007 23.8316 53.5087 23.7869 53.5062 23.7422C53.5036 23.6975 53.4905 23.654 53.4678 23.6152C53.4451 23.5765 53.4136 23.5435 53.3757 23.5189C53.3378 23.4944 53.2946 23.479 53.2495 23.474L46.0308 22.6195C45.9887 22.6153 45.9461 22.62 45.906 22.6332C45.8658 22.6464 45.8289 22.6679 45.7978 22.6962L43.1214 25.1541L42.2961 25.1273L43.1032 21.6318C43.112 21.5955 43.1131 21.5577 43.1063 21.521L42.5478 18.2055L43.3673 18.2323L45.8614 20.8733C45.8903 20.9041 45.9256 20.9284 45.9649 20.9445C46.0042 20.9606 46.0465 20.9681 46.089 20.9665L53.3517 20.6097C53.3968 20.6071 53.4407 20.5944 53.4801 20.5726C53.5195 20.5508 53.5534 20.5204 53.5793 20.4838C53.6046 20.4469 53.6208 20.4046 53.6266 20.3604C53.6324 20.3161 53.6276 20.2712 53.6127 20.2291L50.5387 11.3105L51.9407 11.3585L58.4006 20.1869C58.4276 20.224 58.4632 20.2543 58.5044 20.2751C58.5456 20.296 58.5912 20.3069 58.6375 20.307C65.8531 20.3277 68.4141 21.5447 68.4141 22.5761C68.4076 22.677 68.3801 22.7754 68.3332 22.8653C68.2862 22.9551 68.221 23.0343 68.1415 23.0979H68.1403Z" stroke="#7B17C1" stroke-width="0.2" mask="url(#path-11-outside-2_253_3738)"/>
</svg>
